<svg xmlns="http://www.w3.org/2000/svg" width="77" height="86" viewBox="0 0 77 86" fill="none">
  <g opacity="0.1">
    <g clip-path="url(#clip0_259_33094)">
      <path d="M-0.327042 57.9573L0.638746 51.5298L4.91234 46.6456C5.06324 46.4761 5.13569 46.2522 5.11154 46.0283C5.09344 45.8044 4.97874 45.5986 4.80369 45.4533L-0.272718 41.3862L-2.37331 35.2311C-2.44574 35.0192 -2.60268 34.8437 -2.80791 34.7469C-3.01314 34.65 -3.24854 34.644 -3.45981 34.7227L-9.50804 37.0831L-15.8822 35.8121C-16.1056 35.7697 -16.3349 35.8121 -16.516 35.9452C-16.7031 36.0723 -16.8239 36.272 -16.8601 36.496L-17.8259 42.9235L-22.0995 47.8077C-22.2504 47.9771 -22.3228 48.201 -22.2987 48.425C-22.2806 48.6489 -22.1659 48.8547 -21.9908 48.9999L-16.9144 53.0671L-14.8138 59.2222C-14.7414 59.434 -14.5845 59.6095 -14.3792 59.7064C-14.174 59.8032 -13.9386 59.8093 -13.7273 59.7306L-7.67908 57.3702L-1.3049 58.6412C-1.08156 58.6835 -0.852192 58.6412 -0.671108 58.508C-0.483988 58.3809 -0.36326 58.1812 -0.327042 57.9573Z" fill="black"/>
      <path d="M68.588 32.8103L69.5538 26.3828L73.8274 21.4986C73.9783 21.3292 74.0507 21.1052 74.0266 20.8813C74.0085 20.6574 73.8938 20.4516 73.7187 20.3063L68.6423 16.2392L66.5417 10.0841C66.4693 9.87224 66.3124 9.69674 66.1071 9.5999C65.9019 9.50306 65.6665 9.49701 65.4552 9.57569L59.407 11.9361L53.0328 10.6651C52.8095 10.6227 52.5801 10.6651 52.399 10.7982C52.2119 10.9253 52.0912 11.1251 52.0549 11.349L51.0892 17.7765L46.8156 22.6607C46.6647 22.8301 46.5922 23.0541 46.6164 23.278C46.6345 23.5019 46.7492 23.7077 46.9242 23.853L52.0006 27.9201L54.1012 34.0752C54.1736 34.2871 54.3306 34.4626 54.5358 34.5594C54.7411 34.6562 54.9764 34.6623 55.1877 34.5836L61.236 32.2232L67.6101 33.4942C67.8335 33.5366 68.0628 33.4942 68.2439 33.361C68.4311 33.2339 68.5518 33.0342 68.588 32.8103Z" fill="black"/>
      <path d="M31.1871 23.2232C24.6921 20.1849 16.8572 23.2535 14.1591 29.0636C12.3784 32.8886 13.2778 36.9436 15.9458 40.1332L15.324 41.4768C14.986 42.197 15.2999 43.0564 16.0182 43.3893L25.5312 47.8377C26.2495 48.1706 27.1066 47.8619 27.4386 47.1417L28.0603 45.7981C32.2132 45.7981 35.8892 43.8795 37.6699 40.0545C40.3741 34.2444 37.682 26.2554 31.1871 23.2171V23.2232ZM27.3843 33.736L29.5935 32.9249C30.0583 32.7555 30.5774 32.9976 30.7464 33.4636C30.9154 33.9296 30.674 34.4501 30.2092 34.6196L28 35.4306C27.7646 35.5153 27.5231 35.4972 27.3119 35.4003C27.1006 35.3035 26.9316 35.128 26.8471 34.8919C26.678 34.4259 26.9195 33.9054 27.3843 33.736ZM23.7445 30.1954C24.2093 30.0259 24.7284 30.268 24.8974 30.734L25.7002 32.9552C25.8692 33.4212 25.6278 33.9417 25.163 34.1112C24.9276 34.1959 24.6861 34.1778 24.4748 34.0809C24.2636 33.9841 24.0946 33.8086 24.0101 33.5725L23.2073 31.3514C23.0382 30.8854 23.2797 30.3649 23.7445 30.1954ZM17.9317 38.1299C16.0423 37.2463 15.2516 34.9343 16.1691 32.9673C17.0866 31.0003 19.3562 30.1167 21.2455 31.0003C23.1348 31.884 23.9256 34.1959 23.0081 36.1629C22.0906 38.1299 19.821 39.0135 17.9317 38.1299ZM21.0705 40.3329C21.0705 40.3329 24.2817 38.2267 24.2817 38.2328L24.6137 41.9852C24.6137 41.9852 21.0705 40.3329 21.0705 40.3269V40.3329ZM28.5794 43.1048C26.6901 42.2212 25.8994 39.9093 26.8169 37.9423C27.7344 35.9753 30.004 35.0917 31.8933 35.9753C33.7826 36.8589 34.5733 39.1709 33.6558 41.1379C32.7383 43.1048 30.4687 43.9885 28.5794 43.1048Z" fill="black"/>
      <path d="M21.5904 10.8345L22.5562 4.40696L26.8298 -0.477193C26.9807 -0.646656 27.0532 -0.870602 27.029 -1.09453C27.0109 -1.31847 26.8962 -1.52423 26.7212 -1.66949L21.6448 -5.7366L19.5442 -11.8918C19.4717 -12.1036 19.3148 -12.2791 19.1096 -12.3759C18.9044 -12.4728 18.6689 -12.4788 18.4577 -12.4001L12.4094 -10.0398L6.03526 -11.3107C5.81192 -11.3531 5.58254 -11.3107 5.40145 -11.1776C5.21433 -11.0505 5.09361 -10.8508 5.05739 -10.6268L4.09162 -4.19935L-0.181994 0.68483C-0.332898 0.854293 -0.405323 1.07822 -0.381179 1.30215C-0.36307 1.52609 -0.248396 1.73187 -0.0733471 1.87712L5.00307 5.94424L7.10365 12.0994C7.17609 12.3112 7.33303 12.4867 7.53826 12.5836C7.74349 12.6804 7.97889 12.6865 8.19016 12.6078L14.2384 10.2474L20.6126 11.5184C20.8359 11.5607 21.0653 11.5184 21.2464 11.3852C21.4335 11.2581 21.5542 11.0584 21.5904 10.8345Z" fill="black"/>
      <path d="M53.1228 -23.833C46.6279 -26.8712 38.793 -23.8027 36.0948 -17.9925C34.3142 -14.1675 35.2136 -10.1125 37.8815 -6.92297L37.2598 -5.57937C36.9218 -4.85915 37.2357 -3.99973 37.954 -3.66685L47.467 0.781557C48.1853 1.11443 49.0424 0.805769 49.3744 0.0855522L49.9961 -1.25805C54.149 -1.25805 57.825 -3.17661 59.6057 -7.00164C62.3099 -12.8118 59.6178 -20.8008 53.1228 -23.839V-23.833ZM49.3201 -13.3202L51.5293 -14.1312C51.9941 -14.3007 52.5132 -14.0586 52.6822 -13.5926C52.8512 -13.1265 52.6098 -12.606 52.145 -12.4366L49.9358 -11.6256C49.7003 -11.5408 49.4589 -11.559 49.2476 -11.6558C49.0364 -11.7527 48.8673 -11.9282 48.7828 -12.1642C48.6138 -12.6303 48.8553 -13.1507 49.3201 -13.3202ZM45.6863 -16.8668C46.1511 -17.0363 46.6702 -16.7942 46.8392 -16.3282L47.642 -14.107C47.811 -13.641 47.5696 -13.1205 47.1048 -12.951C46.8694 -12.8663 46.6279 -12.8844 46.4167 -12.9813C46.2054 -13.0781 46.0364 -13.2536 45.9519 -13.4897L45.1491 -15.7108C44.9801 -16.1769 45.2215 -16.6974 45.6863 -16.8668ZM39.8735 -8.93231C37.9842 -9.81594 37.1934 -12.1279 38.1109 -14.0949C39.0284 -16.0619 41.298 -16.9455 43.1873 -16.0619C45.0766 -15.1782 45.8674 -12.8663 44.9499 -10.8993C44.0324 -8.93231 41.7628 -8.04868 39.8735 -8.93231ZM43.0123 -6.72324C43.0123 -6.72324 46.2235 -8.82942 46.2235 -8.82337L46.5555 -5.07098C46.5555 -5.07098 43.0123 -6.72324 43.0123 -6.7293V-6.72324ZM50.5213 -3.95131C48.6319 -4.83494 47.8412 -7.1469 48.7587 -9.11389C49.6762 -11.0809 51.9458 -11.9645 53.8351 -11.0809C55.7244 -10.1972 56.5152 -7.88528 55.5977 -5.9183C54.6802 -3.95131 52.4106 -3.06768 50.5213 -3.95131Z" fill="black"/>
      <path d="M93.6685 101.902L94.6344 95.4746L98.908 90.5904C99.0589 90.421 99.1313 90.197 99.1071 89.9731C99.089 89.7492 98.9743 89.5434 98.7993 89.3981L93.7229 85.331L91.6223 79.1759C91.5499 78.964 91.3929 78.7885 91.1877 78.6917C90.9825 78.5949 90.747 78.5888 90.5358 78.6675L84.4876 81.0279L78.1134 79.7569C77.89 79.7145 77.6607 79.7569 77.4796 79.89C77.2925 80.0171 77.1717 80.2169 77.1355 80.4408L76.1697 86.8683L71.8961 91.7525C71.7452 91.9219 71.6728 92.1458 71.6969 92.3698C71.7151 92.5937 71.8297 92.7995 72.0048 92.9448L77.0812 97.0119L79.1818 103.167C79.2542 103.379 79.4112 103.554 79.6164 103.651C79.8216 103.748 80.057 103.754 80.2683 103.675L86.3165 101.315L92.6907 102.586C92.914 102.628 93.1434 102.586 93.3245 102.453C93.5116 102.326 93.6323 102.126 93.6685 101.902Z" fill="black"/>
      <path d="M46.6703 79.9326L47.6361 73.5051L51.9097 68.6209C52.0606 68.4515 52.133 68.2276 52.1089 68.0036C52.0907 67.7797 51.9761 67.5739 51.801 67.4286L46.7246 63.3615L44.624 57.2064C44.5516 56.9946 44.3946 56.819 44.1894 56.7222C43.9842 56.6254 43.7488 56.6193 43.5375 56.698L37.4893 59.0584L31.1151 57.7874C30.8918 57.745 30.6624 57.7874 30.4813 57.9206C30.2942 58.0477 30.1735 58.2474 30.1372 58.4713L29.1715 64.8988L24.8979 69.783C24.747 69.9524 24.6745 70.1764 24.6987 70.4003C24.7168 70.6242 24.8315 70.83 25.0065 70.9753L30.0829 75.0424L32.1835 81.1975C32.2559 81.4094 32.4129 81.5849 32.6181 81.6817C32.8233 81.7786 33.0587 81.7846 33.27 81.7059L39.3182 79.3455L45.6924 80.6165C45.9158 80.6589 46.1451 80.6165 46.3262 80.4834C46.5133 80.3563 46.6341 80.1565 46.6703 79.9326Z" fill="black"/>
      <path d="M9.29448 70.4063C2.79957 67.3681 -5.03536 70.4365 -7.73353 76.2467C-9.51419 80.0717 -8.61481 84.1268 -5.94683 87.3163L-6.56855 88.6599C-6.90658 89.3801 -6.5927 90.2395 -5.8744 90.5724L3.6386 95.0208C4.3569 95.3537 5.21404 95.045 5.54603 94.3248L6.16775 92.9812C10.3206 92.9812 13.9966 91.0626 15.7773 87.2376C18.4815 81.4274 15.7894 73.4385 9.29448 70.4002V70.4063ZM5.49168 80.9251L7.70092 80.1141C8.1657 79.9446 8.68482 80.1867 8.85383 80.6528C9.02284 81.1188 8.7814 81.6393 8.31662 81.8087L6.10738 82.6197C5.87197 82.7045 5.63052 82.6863 5.41925 82.5895C5.20799 82.4927 5.03898 82.3171 4.95447 82.0811C4.78546 81.6151 5.0269 81.0946 5.49168 80.9251ZM1.85188 77.3785C2.31666 77.209 2.83578 77.4511 3.00479 77.9171L3.80761 80.1383C3.97662 80.6043 3.73517 81.1248 3.27038 81.2943C3.03497 81.379 2.79353 81.3609 2.58227 81.264C2.371 81.1672 2.20198 80.9917 2.11747 80.7557L1.31467 78.5345C1.14566 78.0684 1.3871 77.5479 1.85188 77.3785ZM-3.96093 85.313C-5.85024 84.4294 -6.64099 82.1174 -5.72349 80.1504C-4.806 78.1834 -2.5364 77.2998 -0.64708 78.1834C1.24224 79.0671 2.03296 81.379 1.11547 83.346C0.197971 85.313 -2.07161 86.1966 -3.96093 85.313ZM-0.822134 87.516C-0.822134 87.516 2.38911 85.4098 2.38911 85.4159L2.72109 89.1683C2.72109 89.1683 -0.822134 87.516 -0.822134 87.51V87.516ZM6.68685 90.294C4.79753 89.4104 4.00681 87.0984 4.9243 85.1314C5.8418 83.1644 8.11138 82.2808 10.0007 83.1644C11.89 84.0481 12.6808 86.36 11.7633 88.327C10.8458 90.294 8.57617 91.1776 6.68685 90.294Z" fill="black"/>
      <path d="M78.2036 45.2596C71.7087 42.2213 63.8738 45.2898 61.1757 51.1C59.395 54.925 60.2944 58.98 62.9623 62.1696L62.3406 63.5132C62.0026 64.2334 62.3165 65.0928 63.0348 65.4257L72.5478 69.8741C73.2661 70.207 74.1232 69.8983 74.4552 69.1781L75.0769 67.8345C79.2298 67.8345 82.9058 65.9159 84.6865 62.0909C87.3907 56.2807 84.6985 48.2918 78.2036 45.2535V45.2596ZM74.4069 55.7723L76.6161 54.9613C77.0809 54.7919 77.6 55.034 77.7691 55.5C77.9381 55.966 77.6966 56.4865 77.2318 56.656L75.0226 57.467C74.7872 57.5517 74.5457 57.5335 74.3345 57.4367C74.1232 57.3399 73.9542 57.1643 73.8697 56.9283C73.7007 56.4623 73.9421 55.9418 74.4069 55.7723ZM70.7671 52.2318C71.2319 52.0623 71.751 52.3044 71.92 52.7704L72.7228 54.9916C72.8918 55.4576 72.6504 55.9781 72.1856 56.1476C71.9502 56.2323 71.7087 56.2141 71.4975 56.1173C71.2862 56.0205 71.1172 55.845 71.0327 55.6089L70.2299 53.3878C70.0609 52.9217 70.3023 52.4012 70.7671 52.2318ZM64.9543 60.1663C63.065 59.2826 62.2742 56.9707 63.1917 55.0037C64.1092 53.0367 66.3788 52.1531 68.2681 53.0367C70.1575 53.9203 70.9482 56.2323 70.0307 58.1993C69.1132 60.1663 66.8436 61.0499 64.9543 60.1663ZM68.0931 62.3693C68.0931 62.3693 71.3043 60.2631 71.3043 60.2692L71.6363 64.0216C71.6363 64.0216 68.0931 62.3693 68.0931 62.3632V62.3693ZM75.6021 65.1473C73.7127 64.2637 72.922 61.9517 73.8395 59.9847C74.757 58.0177 77.0266 57.1341 78.9159 58.0177C80.8052 58.9014 81.596 61.2133 80.6785 63.1803C79.761 65.1473 77.4914 66.0309 75.6021 65.1473Z" fill="black"/>
    </g>
  </g>
  <defs>
    <clipPath id="clip0_259_33094">
      <path d="M0 8C0 3.58172 3.58172 0 8 0H69C73.4183 0 77 3.58172 77 8V78C77 82.4183 73.4183 86 69 86H8C3.58172 86 0 82.4183 0 78V8Z" fill="black"/>
    </clipPath>
  </defs>
</svg>
