<svg xmlns="http://www.w3.org/2000/svg" width="76" height="78" viewBox="0 0 76 78" fill="none">
  <g clip-path="url(#clip0_259_33162)">
    <g filter="url(#filter0_f_259_33162)">
      <path d="M41.5111 39.1029L52.4457 2.52135L57.6957 4.42486L42.475 39.4559L65.3043 8.80328L69.5868 12.381L43.2599 40.1111L75.2312 19.0888L78.0241 23.9112L43.7711 40.9955L81.0288 32.1367L82 37.6252L43.95 42L82 46.3748L81.0288 51.8633L43.7711 43.0045L78.0241 60.0888L75.2312 64.9112L43.2599 43.889L69.5868 71.6154L65.3043 75.1967L42.475 44.5441L57.6957 79.5751L52.4457 81.4786L41.5111 44.8971L43.7966 83H38.2034L40.4889 44.8935L29.5543 81.4786L24.3043 79.5751L39.525 44.5441L16.6957 75.1967L12.4132 71.6154L38.7401 43.889L6.76883 64.9112L3.97587 60.0888L38.2289 43.0045L0.971149 51.8633L0 46.3748L38.05 42L0 37.6252L0.971149 32.1367L38.2289 40.9955L3.97587 23.9112L6.76883 19.0888L38.7401 40.1111L12.4132 12.381L16.6957 8.80328L39.525 39.4559L24.3043 4.42486L29.5543 2.52135L40.4889 39.1065L38.2034 1H43.7966L41.5111 39.1029Z" fill="url(#paint0_radial_259_33162)" fill-opacity="0.25"/>
    </g>
  </g>
  <defs>
    <filter id="filter0_f_259_33162" x="-4" y="-3" width="90" height="90" filterUnits="userSpaceOnUse" color-interpolation-filters="sRGB">
      <feFlood flood-opacity="0" result="BackgroundImageFix"/>
      <feBlend mode="normal" in="SourceGraphic" in2="BackgroundImageFix" result="shape"/>
      <feGaussianBlur stdDeviation="2" result="effect1_foregroundBlur_259_33162"/>
    </filter>
    <radialGradient id="paint0_radial_259_33162" cx="0" cy="0" r="1" gradientUnits="userSpaceOnUse" gradientTransform="translate(41 42) rotate(90) scale(41)">
      <stop stop-color="white"/>
      <stop offset="1" stop-color="white" stop-opacity="0"/>
    </radialGradient>
    <clipPath id="clip0_259_33162">
      <rect width="76" height="78" fill="white"/>
    </clipPath>
  </defs>
</svg>
