<svg width="500" height="500" viewBox="0 0 500 500" fill="none" xmlns="http://www.w3.org/2000/svg">
<g opacity="0.7" clip-path="url(#clip0_5725_49072)">
<path fill-rule="evenodd" clip-rule="evenodd" d="M530.51 -51.2796L534.12 -18.9996L559.08 1.79043L532.94 21.0604L527.41 53.0604L497.65 40.0604L467.17 51.2804L463.56 19.0004L438.6 -1.78957L464.74 -21.0596L470.27 -53.0596L500.03 -40.0596L530.51 -51.2796Z" fill="#000000"/>
<path fill-rule="evenodd" clip-rule="evenodd" d="M258.66 -43.5204L281.87 -29.1904L276.17 -3.40039L282.46 0.47961L296.6 -11.8104L309.14 -4.07039L264.47 56.6496L227.14 33.4696L189.7 10.4796L223.99 -56.6504L236.52 -48.9104L231.87 -30.7604L238.16 -26.8704L258.66 -43.5204Z" fill="#000000"/>
<path fill-rule="evenodd" clip-rule="evenodd" d="M88.2796 302.63C70.5996 281.66 62.3897 249.23 73.1397 231.81L95.8496 195.04L118.24 206.3L126.51 201.9L161.21 223.33L160.98 232.69L181.08 247.67L158.37 284.44C147.61 301.86 114.94 309.04 88.2696 302.62L88.2796 302.63Z" fill="#000000"/>
<path fill-rule="evenodd" clip-rule="evenodd" d="M341.37 300.22C338.28 298.3 327.82 291.53 324.67 276.55C320.93 258.75 328.45 249.74 328.45 249.74C328.45 249.74 338.67 252.98 347.05 265.56C344.48 261.14 341.99 255.92 340.68 250.62C336.3 232.92 344.46 223.81 344.46 223.81C344.46 223.81 353.39 226.45 361.95 239.03C359.53 234.87 357.27 230.09 356.07 225.22C351.69 207.52 361.92 197.43 361.92 197.43C361.92 197.43 374.03 202.95 379.19 218.44C380.09 215.26 381.43 211.68 383.42 208.45C393.72 191.78 407.35 193.98 407.35 193.98C407.35 193.98 415.42 205.18 405.12 221.85C403.13 225.08 400.52 227.89 398.08 230.11C414.23 227.8 424.6 236.15 424.6 236.15C424.6 236.15 420.16 249.82 402.37 253.83C397.48 254.93 392.19 255.06 387.39 254.76C402.48 256.78 408.84 263.58 408.84 263.58C408.84 263.58 404.36 274.95 386.56 278.96C381.23 280.16 375.45 280.27 370.34 279.96C385.35 281.83 392.82 289.51 392.82 289.51C392.82 289.51 388.14 300.27 370.54 304.89C355.26 308.9 344.31 302.05 341.63 300.39L341.35 300.22H341.37Z" fill="#000000"/>
<path fill-rule="evenodd" clip-rule="evenodd" d="M31.6698 -51.2796L35.2798 -18.9996L60.2398 1.79043L34.0998 21.0604L28.5698 53.0604L-1.19023 40.0604L-31.6702 51.2804L-35.2802 19.0004L-60.2402 -1.78957L-34.1002 -21.0596L-28.5702 -53.0596L1.18977 -40.0596L31.6698 -51.2796Z" fill="#000000"/>
<path fill-rule="evenodd" clip-rule="evenodd" d="M530.51 448.72L534.12 481L559.08 501.79L532.94 521.06L527.41 553.06L497.65 540.06L467.17 551.28L463.56 519L438.6 498.21L464.74 478.94L470.27 446.94L500.03 459.94L530.51 448.72Z" fill="#000000"/>
<path fill-rule="evenodd" clip-rule="evenodd" d="M258.66 456.48L281.87 470.81L276.17 496.6L282.46 500.48L296.6 488.19L309.14 495.93L264.47 556.65L227.14 533.47L189.7 510.48L223.99 443.35L236.52 451.09L231.87 469.24L238.16 473.13L258.66 456.48Z" fill="#000000"/>
<path fill-rule="evenodd" clip-rule="evenodd" d="M31.6698 448.72L35.2798 481L60.2398 501.79L34.0998 521.06L28.5698 553.06L-1.19023 540.06L-31.6702 551.28L-35.2802 519L-60.2402 498.21L-34.1002 478.94L-28.5702 446.94L1.18977 459.94L31.6698 448.72Z" fill="#000000"/>
</g>
<defs>
<clipPath id="clip0_5725_49072">
<rect width="500" height="500" fill="white"/>
</clipPath>
</defs>
</svg>
