<svg id="Layer_1" xmlns="http://www.w3.org/2000/svg" version="1.1" viewBox="0 0 408.9 95.1" preserveAspectRatio="none">
  <path d="M8.8,8.2c.1-1,1.2-1.8,2.4-1.8l204.7-3.3c1.4,0,2.5.9,2.5,2v3.5c0,1.1,1.1,2,2.5,2l183.1-4.1c1.5,0,2.7,1,2.5,2.2l-6.2,79.4c-.1,1-1.1,1.8-2.4,1.8l-186.5,4.1c-1.4,0-2.5-.9-2.5-2v-5.2c0-1.1-1.2-2-2.5-2L5.2,89.7c-1.5,0-2.7-1-2.5-2.2L8.8,8.2Z" fill="#2B2C3C"/>
  <path class="st1" d="M406.4,7.8c.1-1.2-1-2.2-2.5-2.2l-183.1,4.1c-1.4,0-2.5-.9-2.5-2v-3.5c0-1.1-1.1-2-2.5-2L11,5.6c-1.3,0-2.3.8-2.4,1.8l-.3,4.1,202.4-3.3c1.4,0,2.5.9,2.5,2v3.5c0,1.1,1.1,2,2.5,2l183.1-4.1c1.5,0,5.9-.1,7.6.6" fill="#413d5e"/>
  <path  d="M12.6,5.1c-2,0-3.7,1.3-3.9,2.9L2.5,85.4c-.2,1.9,1.7,3.6,4.1,3.6l201.3-4.9c.5,0,1,.3,1,.7v5.2c0,1.8,1.9,3.3,4.1,3.2l183.7-4.1c2,0,3.7-1.3,3.9-2.9l6.2-77.4c.2-1.9-1.7-3.6-4.1-3.6l-183.1,4.1c-.5,0-1-.3-1-.7v-3.5c0-1.8-1.8-3.3-4.1-3.2L12.6,5.1Z" fill="none" stroke="#000" stroke-width="2.5px"/>
</svg>
