<svg width="100%" height="62" viewBox="0 0 380 62" fill="none" preserveAspectRatio="none" xmlns="http://www.w3.org/2000/svg">
<g filter="url(#filter0_dd_1209_20558)">
<path d="M18.4647 25.5L15 8H23V25.5V43H15L18.4647 25.5Z" fill="#DB3D42"/>
<path d="M23 4C23 2.89543 23.8954 2 25 2H355C356.105 2 357 2.89543 357 4V47C357 48.1046 356.105 49 355 49H25C23.8954 49 23 48.1046 23 47V4Z" fill="url(#paint0_linear_1209_20558)"/>
<line x1="357" y1="5.08621" x2="23" y2="5.08621" stroke="white" stroke-opacity="0.2"/>
<line x1="357" y1="45.5345" x2="23" y2="45.5345" stroke="white" stroke-opacity="0.2"/>
<path d="M361.535 25.5L365 8H357V25.5V43H365L361.535 25.5Z" fill="#DB3D42"/>
</g>
<defs>
<filter id="filter0_dd_1209_20558" x="-5" y="0" width="390" height="62" filterUnits="userSpaceOnUse" color-interpolation-filters="sRGB">
<feFlood flood-opacity="0" result="BackgroundImageFix"/>
<feColorMatrix in="SourceAlpha" type="matrix" values="0 0 0 0 0 0 0 0 0 0 0 0 0 0 0 0 0 0 127 0" result="hardAlpha"/>
<feOffset dy="2"/>
<feGaussianBlur stdDeviation="2"/>
<feComposite in2="hardAlpha" operator="out"/>
<feColorMatrix type="matrix" values="0 0 0 0 0 0 0 0 0 0 0 0 0 0 0 0 0 0 0.08 0"/>
<feBlend mode="normal" in2="BackgroundImageFix" result="effect1_dropShadow_1209_20558"/>
<feColorMatrix in="SourceAlpha" type="matrix" values="0 0 0 0 0 0 0 0 0 0 0 0 0 0 0 0 0 0 127 0" result="hardAlpha"/>
<feOffset dy="8"/>
<feGaussianBlur stdDeviation="2.5"/>
<feComposite in2="hardAlpha" operator="out"/>
<feColorMatrix type="matrix" values="0 0 0 0 0.247481 0 0 0 0 0.176501 0 0 0 0 0.0700322 0 0 0 0.2 0"/>
<feBlend mode="normal" in2="effect1_dropShadow_1209_20558" result="effect2_dropShadow_1209_20558"/>
<feBlend mode="normal" in="SourceGraphic" in2="effect2_dropShadow_1209_20558" result="shape"/>
</filter>
<linearGradient id="paint0_linear_1209_20558" x1="354.507" y1="25.4993" x2="23" y2="25.4994" gradientUnits="userSpaceOnUse">
<stop stop-color="#A8252E"/>
<stop offset="0.02" stop-color="#DD4A4F"/>
<stop offset="0.51" stop-color="#DB3D3D"/>
<stop offset="0.98" stop-color="#DE4A50"/>
<stop offset="1" stop-color="#A8252E"/>
</linearGradient>
</defs>
</svg>
