<svg width="16" height="15" viewBox="0 0 16 15" fill="none" xmlns="http://www.w3.org/2000/svg">
<path fill-rule="evenodd" clip-rule="evenodd" d="M8 0.331055C4.13647 0.331055 1 3.46753 1 7.33105C1 11.1946 4.13647 14.3311 8 14.3311C11.8635 14.3311 15 11.1946 15 7.33105C15 3.46753 11.8635 0.331055 8 0.331055ZM10.6181 11.2877C10.417 11.7674 10.1793 12.1934 9.91233 12.5522C9.4503 13.1731 8.90369 13.5892 8.30449 13.6954V11.2877H10.6181ZM7.69582 13.6954C7.09662 13.5892 6.55002 13.1731 6.08798 12.5522C5.82101 12.1934 5.58335 11.7674 5.38219 11.2877H7.69582V13.6954ZM4.72865 11.2877H2.98172C3.75536 12.2671 4.80937 13.0152 6.02219 13.41C5.87515 13.2614 5.7339 13.0961 5.59971 12.9156C5.26373 12.4643 4.96884 11.9137 4.72865 11.2877ZM13.0187 11.2877H11.2717C11.0315 11.9137 10.7366 12.4643 10.4007 12.9156C10.2664 13.0961 10.1252 13.2614 9.97817 13.4099C11.191 13.0152 12.2451 12.2671 13.0187 11.2877ZM4.04726 7.63549H1.61584C1.66812 8.74788 2.00543 9.78626 2.556 10.6788H4.51959C4.24273 9.77006 4.07373 8.73614 4.04726 7.63549ZM11.3444 7.63549C11.3168 8.74512 11.1384 9.783 10.8447 10.6788H8.30462V7.63549H11.3444ZM14.3846 7.63549H11.9532C11.9267 8.73625 11.7577 9.77016 11.4809 10.6788H13.4445C13.995 9.78587 14.3323 8.74778 14.3846 7.63549ZM5.1557 10.6788C4.86191 9.78289 4.68358 8.74501 4.65598 7.63549H7.69567V10.6788H5.1557ZM4.51951 3.98327H2.55592C2.00535 4.87624 1.66804 5.91433 1.61576 7.02662H4.04718C4.07367 5.92586 4.24265 4.89195 4.51951 3.98327ZM10.8446 3.98327C11.1384 4.87922 11.3168 5.9171 11.3444 7.02662H8.30467V3.98327H10.8446ZM13.4444 3.98327H11.4808C11.7577 4.89205 11.9266 5.92597 11.9531 7.02662H14.3845C14.3322 5.91423 13.995 4.87585 13.4444 3.98327ZM4.65611 7.02662C4.68372 5.91699 4.86205 4.87911 5.15583 3.98327H7.69587V7.02662H4.65611ZM6.02232 1.2522C4.80947 1.64698 3.75547 2.39505 2.98185 3.37445H4.72879C4.96897 2.74846 5.26389 2.19786 5.59987 1.74655C5.73407 1.56608 5.8753 1.40076 6.02232 1.2522ZM8.30465 0.966776C8.90385 1.07296 9.45045 1.48904 9.91248 2.10992C10.1795 2.46872 10.4171 2.89478 10.6183 3.37445H8.30465V0.966776ZM9.9782 1.2522C10.1252 1.40077 10.2665 1.56605 10.4007 1.74652C10.7367 2.19786 11.0316 2.74843 11.2718 3.37442H13.0187C12.2451 2.39503 11.191 1.64698 9.9782 1.2522ZM7.69587 0.966776V3.37445H5.38225C5.5834 2.89478 5.82103 2.46872 6.08804 2.10992C6.55007 1.48902 7.09667 1.07295 7.69587 0.966776Z" fill="white" stroke="white" stroke-width="0.3"/>
</svg>
