<svg xmlns="http://www.w3.org/2000/svg" width="30" height="22" fill="none"><g clip-path="url(#a)"><path fill="#000" fill-opacity=".05" fill-rule="evenodd" d="M15.338 5.353c-.537-1.576-2.24-2.444-3.822-1.9L4.113 6c-1.582.544-2.397 2.279-1.86 3.854l2.141 6.278c.538 1.575 2.24 2.444 3.823 1.9l.32-.111.147.43c.505 1.482 2.106 2.299 3.594 1.787l14.006-4.819c1.488-.512 2.255-2.143 1.75-3.624l-2.245-6.609c-.506-1.481-2.107-2.298-3.595-1.786l-6.762 2.326z" clip-rule="evenodd"/><mask id="b" width="26.604" height="21.674" x="4.099" y="-.478" fill="#000" maskUnits="userSpaceOnUse"><path fill="#fff" d="M4.099-.478h26.604v21.674H4.099z"/><path fill-rule="evenodd" d="M22.551 2.796c1.066-.367 2.247.266 2.638 1.412l2.125 6.23c.391 1.146-.156 2.373-1.221 2.74l-13.985 4.79c-1.066.367-2.247-.265-2.638-1.412l-2.125-6.229c-.39-1.147.156-2.373 1.222-2.74z" clip-rule="evenodd"/></mask><path fill="#555" fill-rule="evenodd" d="M22.551 2.796c1.066-.367 2.247.266 2.638 1.412l2.125 6.23c.391 1.146-.156 2.373-1.221 2.74l-13.985 4.79c-1.066.367-2.247-.265-2.638-1.412l-2.125-6.229c-.39-1.147.156-2.373 1.222-2.74z" clip-rule="evenodd"/><path fill="#000" fill-rule="evenodd" d="M22.551 2.796c1.066-.367 2.247.266 2.638 1.412l2.125 6.23c.391 1.146-.156 2.373-1.221 2.74l-13.985 4.79c-1.066.367-2.247-.265-2.638-1.412l-2.125-6.229c-.39-1.147.156-2.373 1.222-2.74z" clip-rule="evenodd"/><path fill="#A081FA" fill-opacity=".7" fill-rule="evenodd" d="M22.551 2.796c1.066-.367 2.247.266 2.638 1.412l2.125 6.23c.391 1.146-.156 2.373-1.221 2.74l-13.985 4.79c-1.066.367-2.247-.265-2.638-1.412l-2.125-6.229c-.39-1.147.156-2.373 1.222-2.74z" clip-rule="evenodd"/><path stroke="#000" stroke-width="2.4" d="M22.551 2.796c1.066-.367 2.247.266 2.638 1.412l2.125 6.23c.391 1.146-.156 2.373-1.221 2.74l-13.985 4.79c-1.066.367-2.247-.265-2.638-1.412l-2.125-6.229c-.39-1.147.156-2.373 1.222-2.74z" clip-rule="evenodd" mask="url(#b)"/><mask id="d" fill="#fff"><path fill-rule="evenodd" d="M22.526 2.729c1.066-.367 2.23.215 2.6 1.3l1.984 5.744c.37 1.085-.194 2.261-1.26 2.628l-13.99 4.794c-1.066.367-2.24-.215-2.61-1.3l-1.974-5.744c-.37-1.085.194-2.261 1.26-2.628z" clip-rule="evenodd"/></mask><path fill="#494949" fill-rule="evenodd" d="M22.526 2.729c1.066-.367 2.23.215 2.6 1.3l1.984 5.744c.37 1.085-.194 2.261-1.26 2.628l-13.99 4.794c-1.066.367-2.24-.215-2.61-1.3l-1.974-5.744c-.37-1.085.194-2.261 1.26-2.628z" clip-rule="evenodd"/><path stroke="url(#c)" stroke-width="1.686" d="M22.526 2.729c1.066-.367 2.23.215 2.6 1.3l1.984 5.744c.37 1.085-.194 2.261-1.26 2.628l-13.99 4.794c-1.066.367-2.24-.215-2.61-1.3l-1.974-5.744c-.37-1.085.194-2.261 1.26-2.628z" clip-rule="evenodd" mask="url(#d)"/><path stroke="#fff" stroke-opacity=".3" stroke-width="1.686" d="M22.526 2.729c1.066-.367 2.23.215 2.6 1.3l1.984 5.744c.37 1.085-.194 2.261-1.26 2.628l-13.99 4.794c-1.066.367-2.24-.215-2.61-1.3l-1.974-5.744c-.37-1.085.194-2.261 1.26-2.628z" clip-rule="evenodd" mask="url(#d)"/><path stroke="#fff" stroke-width=".825" d="M0-.413h6.022" opacity=".33" transform="matrix(.94632 -.32557 .3226 .94574 17.433 7.984)"/><mask id="e" width="18.711" height="18.124" x=".159" y=".232" fill="#000" maskUnits="userSpaceOnUse"><path fill="#fff" d="M.159.232H18.87v18.124H.159z"/><path fill-rule="evenodd" d="M11.577 3.3c1.066-.366 2.23.216 2.6 1.3l2.011 5.894c.37 1.085-.194 2.262-1.26 2.629l-6.95 2.39c-1.067.368-2.231-.214-2.601-1.3L3.367 8.32c-.37-1.085.194-2.262 1.26-2.628z" clip-rule="evenodd"/></mask><path fill="#F2F2F2" fill-rule="evenodd" d="M11.577 3.3c1.066-.366 2.23.216 2.6 1.3l2.011 5.894c.37 1.085-.194 2.262-1.26 2.629l-6.95 2.39c-1.067.368-2.231-.214-2.601-1.3L3.367 8.32c-.37-1.085.194-2.262 1.26-2.628z" clip-rule="evenodd"/><path fill="#fff" fill-rule="evenodd" d="M11.577 3.3c1.066-.366 2.23.216 2.6 1.3l2.011 5.894c.37 1.085-.194 2.262-1.26 2.629l-6.95 2.39c-1.067.368-2.231-.214-2.601-1.3L3.367 8.32c-.37-1.085.194-2.262 1.26-2.628z" clip-rule="evenodd"/><path stroke="#000" stroke-width="2.4" d="M11.577 3.3c1.066-.366 2.23.216 2.6 1.3l2.011 5.894c.37 1.085-.194 2.262-1.26 2.629l-6.95 2.39c-1.067.368-2.231-.214-2.601-1.3L3.367 8.32c-.37-1.085.194-2.262 1.26-2.628z" clip-rule="evenodd" mask="url(#e)"/><path fill="#000" fill-rule="evenodd" d="m8.165 12.506 1.2-.413-1.773-5.197-1.2.413zm2.921-5.32q-.009-.027-.193-.127-.184-.102-.208-.093L9.3 7.443l1.08 3.17 1.388-.477q.023-.009.107-.202t.075-.219zm.83-.616q.075.12.14.31l.845 2.477q.065.19.078.331a1 1 0 0 1-.036.332 2.4 2.4 0 0 1-.138.396q-.098.228-.188.355a.8.8 0 0 1-.21.236q-.105.076-.279.135l-2.363.814-1.773-5.198 2.363-.813q.174-.06.304-.065a.8.8 0 0 1 .31.057q.16.052.371.173.213.12.344.22.155.12.231.24Z" clip-rule="evenodd"/><path fill="#CCC" fill-rule="evenodd" d="M5.693 14.809a2.04 2.04 0 0 0 2.284.705l6.95-2.39a2.05 2.05 0 0 0 1.374-1.965c-.257.5-.715.915-1.31 1.119l-7.58 2.608a2.3 2.3 0 0 1-1.718-.077" clip-rule="evenodd"/></g><defs><linearGradient id="c" x1="8.471" x2="20.257" y1="8.51" y2="18.979" gradientUnits="userSpaceOnUse"><stop stop-color="#2D85F3"/><stop offset="1" stop-color="#DB00FF"/><stop offset="1" stop-color="#FB62AA"/></linearGradient><clipPath id="a"><path fill="#fff" d="M.988 2.725 28.236.821l1.241 18.572L2.23 21.297z"/></clipPath></defs></svg>