<svg width="39" height="38" viewBox="0 0 39 38" fill="none" xmlns="http://www.w3.org/2000/svg">
<circle cx="20.5" cy="19" r="18.5" fill="url(#paint0_linear_12203_161)"/>
<path fill-rule="evenodd" clip-rule="evenodd" d="M18.8749 12.424C18.3038 10.2926 16.1302 8.98806 13.9906 9.56134L3.98268 12.243C1.84316 12.8162 0.612991 15.0329 1.18409 17.1643L3.45941 25.6559C4.03051 27.7873 6.20419 29.0918 8.34371 28.5186L8.77749 28.4023L8.93278 28.985C9.46979 30.9891 11.5137 32.2158 13.5255 31.6768L32.4608 26.6031C34.4725 26.064 35.6293 23.9797 35.0923 21.9756L32.7097 13.0361C32.1727 11.0319 30.1288 9.80523 28.117 10.3443L18.9741 12.7941L18.8749 12.424Z" fill="black" fill-opacity="0.25"/>
<path fill-rule="evenodd" clip-rule="evenodd" d="M28.3132 8.45327C30.325 7.91421 32.3689 9.14091 32.9059 11.145L35.2884 20.0846C35.8254 22.0887 34.6687 24.173 32.6569 24.7121L13.7216 29.7857C11.7098 30.3248 9.66593 29.0981 9.12892 27.094L6.74639 18.1545C6.20938 16.1503 7.36611 14.066 9.3779 13.527L28.3132 8.45327Z" fill="black"/>
<path fill-rule="evenodd" clip-rule="evenodd" d="M28.8363 10.4718C30.2771 10.0857 31.7638 10.962 32.1569 12.4291L34.2922 20.398C34.6853 21.8651 33.8359 23.3673 32.3951 23.7534L13.4909 28.7941C12.0501 29.1801 10.5634 28.3038 10.1703 26.8368L8.035 18.8678C7.64191 17.4008 8.49128 15.8985 9.93213 15.5125L28.8363 10.4718Z" fill="#555555"/>
<path fill-rule="evenodd" clip-rule="evenodd" d="M28.8363 10.4718C30.2771 10.0857 31.7638 10.962 32.1569 12.4291L34.2922 20.398C34.6853 21.8651 33.8359 23.3673 32.3951 23.7534L13.4909 28.7941C12.0501 29.1801 10.5634 28.3038 10.1703 26.8368L8.035 18.8678C7.64191 17.4008 8.49128 15.8985 9.93213 15.5125L28.8363 10.4718Z" fill="black"/>
<path fill-rule="evenodd" clip-rule="evenodd" d="M28.8363 10.4718C30.2771 10.0857 31.7638 10.962 32.1569 12.4291L34.2922 20.398C34.6853 21.8651 33.8359 23.3673 32.3951 23.7534L13.4909 28.7941C12.0501 29.1801 10.5634 28.3038 10.1703 26.8368L8.035 18.8678C7.64191 17.4008 8.49128 15.8985 9.93213 15.5125L28.8363 10.4718Z" fill="#A081FA" fill-opacity="0.7"/>
<path d="M28.7482 10.1587L28.7489 10.1585C29.8833 9.85457 31.071 10.5428 31.3869 11.7217L31.3875 11.7238L33.5014 19.4937C33.5015 19.4941 33.5015 19.4944 33.5016 19.4948C33.8168 20.6731 33.1327 21.8622 31.999 22.1663C31.9988 22.1664 31.9986 22.1665 31.9983 22.1665L13.0877 27.2089L13.0871 27.2091C11.9506 27.5136 10.7527 26.8227 10.4373 25.6459L10.437 25.6446L8.33462 17.8739C8.33456 17.8737 8.33451 17.8735 8.33445 17.8733C8.01899 16.6947 8.70331 15.5052 9.83733 15.2012C9.83743 15.2012 9.83753 15.2011 9.83763 15.2011L28.7482 10.1587Z" fill="#494949"/>
<path d="M28.7482 10.1587L28.7489 10.1585C29.8833 9.85457 31.071 10.5428 31.3869 11.7217L31.3875 11.7238L33.5014 19.4937C33.5015 19.4941 33.5015 19.4944 33.5016 19.4948C33.8168 20.6731 33.1327 21.8622 31.999 22.1663C31.9988 22.1664 31.9986 22.1665 31.9983 22.1665L13.0877 27.2089L13.0871 27.2091C11.9506 27.5136 10.7527 26.8227 10.4373 25.6459L10.437 25.6446L8.33462 17.8739C8.33456 17.8737 8.33451 17.8735 8.33445 17.8733C8.01899 16.6947 8.70331 15.5052 9.83733 15.2012C9.83743 15.2012 9.83753 15.2011 9.83763 15.2011L28.7482 10.1587Z" stroke="url(#paint1_linear_12203_161)" stroke-width="1.11673"/>
<path d="M28.7482 10.1587L28.7489 10.1585C29.8833 9.85457 31.071 10.5428 31.3869 11.7217L31.3875 11.7238L33.5014 19.4937C33.5015 19.4941 33.5015 19.4944 33.5016 19.4948C33.8168 20.6731 33.1327 21.8622 31.999 22.1663C31.9988 22.1664 31.9986 22.1665 31.9983 22.1665L13.0877 27.2089L13.0871 27.2091C11.9506 27.5136 10.7527 26.8227 10.4373 25.6459L10.437 25.6446L8.33462 17.8739C8.33456 17.8737 8.33451 17.8735 8.33445 17.8733C8.01899 16.6947 8.70331 15.5052 9.83733 15.2012C9.83743 15.2012 9.83753 15.2011 9.83763 15.2011L28.7482 10.1587Z" stroke="white" stroke-opacity="0.3" stroke-width="1.11673"/>
<line opacity="0.33" x1="21.2688" y1="15.5652" x2="28.9729" y2="13.5009" stroke="white" stroke-width="1.09299"/>
<path fill-rule="evenodd" clip-rule="evenodd" d="M13.9906 7.78778C16.1302 7.2145 18.3038 8.51908 18.8749 10.6505L21.1503 19.1421C21.7214 21.2734 20.4912 23.4901 18.3517 24.0634L8.34371 26.745C6.20419 27.3183 4.03051 26.0137 3.45941 23.8823L1.18409 15.3907C0.612991 13.2593 1.84316 11.0427 3.98268 10.4694L13.9906 7.78778ZM17.8135 10.9349C17.3946 9.37161 15.8104 8.43784 14.2751 8.84923L4.26709 11.5309C2.73175 11.9423 1.82667 13.543 2.24554 15.1063L4.52086 23.5979C4.93974 25.1612 6.52395 26.0949 8.05929 25.6835L18.0673 23.0019C19.6026 22.5905 20.5077 20.9897 20.0888 19.4265L17.8135 10.9349Z" fill="black"/>
<path fill-rule="evenodd" clip-rule="evenodd" d="M14.2751 8.84911C15.8104 8.43772 17.3946 9.37149 17.8135 10.9348L20.0888 19.4264C20.5077 20.9896 19.6026 22.5904 18.0673 23.0018L8.05931 25.6834C6.52397 26.0948 4.93976 25.161 4.52088 23.5978L2.24556 15.1062C1.82669 13.5429 2.73177 11.9421 4.26711 11.5307L14.2751 8.84911Z" fill="#F2F2F2"/>
<path fill-rule="evenodd" clip-rule="evenodd" d="M14.2751 8.84911C15.8104 8.43772 17.3946 9.37149 17.8135 10.9348L20.0888 19.4264C20.5077 20.9896 19.6026 22.5904 18.0673 23.0018L8.05931 25.6834C6.52397 26.0948 4.93976 25.161 4.52088 23.5978L2.24556 15.1062C1.82669 13.5429 2.73177 11.9421 4.26711 11.5307L14.2751 8.84911Z" fill="white"/>
<path fill-rule="evenodd" clip-rule="evenodd" d="M8.76277 21.2135L10.3852 20.7788L8.50137 13.7481L6.87891 14.1828L8.76277 21.2135Z" fill="#494949"/>
<path fill-rule="evenodd" clip-rule="evenodd" d="M13.0931 14.4511C13.0868 14.4276 13.0055 14.3659 12.8493 14.2652C12.6928 14.1649 12.6041 14.1174 12.5828 14.1231L10.7083 14.6254L11.8574 18.9141L13.7319 18.4118C13.7533 18.4061 13.8064 18.3209 13.8917 18.1556C13.9767 17.9905 14.0161 17.8961 14.0099 17.8726L13.0931 14.4511ZM14.2432 13.7162C14.3029 13.8258 14.356 13.9665 14.402 14.1383L15.3 17.4896C15.3461 17.6615 15.3704 17.8098 15.3735 17.9346C15.3765 18.0594 15.3506 18.2045 15.2961 18.3698C15.2514 18.5158 15.1791 18.6859 15.079 18.8801C14.9787 19.0746 14.886 19.2249 14.8003 19.3315C14.6998 19.4673 14.6004 19.5652 14.5022 19.6249C14.4042 19.6848 14.2769 19.7355 14.1208 19.7773L10.9256 20.6335L9.04169 13.6028L12.2369 12.7467C12.393 12.7048 12.5287 12.6854 12.6435 12.688C12.7584 12.6907 12.8934 12.7258 13.0484 12.793C13.1849 12.8486 13.3436 12.9358 13.5238 13.0549C13.7042 13.1742 13.849 13.2818 13.9586 13.378C14.0884 13.494 14.1834 13.6066 14.2432 13.7162Z" fill="#494949"/>
<path fill-rule="evenodd" clip-rule="evenodd" d="M4.90967 24.4657C5.58067 25.4846 6.8355 26.0114 8.05929 25.6834L18.0673 23.0018C19.291 22.6739 20.1144 21.5903 20.1861 20.3724C19.7772 21.0518 19.0931 21.5893 18.2378 21.8185L7.31997 24.7439C6.46464 24.9731 5.60345 24.8496 4.90967 24.4657Z" fill="#CCCCCC"/>
<defs>
<linearGradient id="paint0_linear_12203_161" x1="2" y1="19" x2="37.8022" y2="12.4514" gradientUnits="userSpaceOnUse">
<stop stop-color="#2D85F3"/>
<stop offset="1" stop-color="#DB00FF"/>
<stop offset="1" stop-color="#FB62AA"/>
</linearGradient>
<linearGradient id="paint1_linear_12203_161" x1="9.51908" y1="15.9608" x2="24.1703" y2="30.8822" gradientUnits="userSpaceOnUse">
<stop stop-color="#2D85F3"/>
<stop offset="1" stop-color="#DB00FF"/>
<stop offset="1" stop-color="#FB62AA"/>
</linearGradient>
</defs>
</svg>
