<svg width="28" height="22" viewBox="0 0 28 22" fill="none" xmlns="http://www.w3.org/2000/svg">
<g id="Group 483442">
<g id="ID Inverted">
<g id="3D edge">
<path d="M0.892019 20.0076L0.893728 20.6059H1.49202H6.67537H6.69715C7.3794 20.6059 7.92199 20.6059 8.36189 20.5758C8.81183 20.5451 9.19814 20.4809 9.55969 20.3308C10.4432 19.9642 11.1444 19.2609 11.5086 18.3764C11.6576 18.0144 11.7207 17.6279 11.7501 17.1779C11.7789 16.7379 11.7774 16.1953 11.7754 15.5131L11.7753 15.4913L11.7753 15.4696C11.7734 14.7909 11.7718 14.251 11.7407 13.8133C11.7089 13.3655 11.6441 12.981 11.4941 12.6211C11.1275 11.7414 10.4271 11.043 9.54637 10.6789C9.18602 10.5299 8.80138 10.4662 8.35348 10.4357C7.91565 10.4059 7.37581 10.4059 6.69712 10.4059L6.67537 10.4059H6.28004L6.25374 10.4059C5.43378 10.4059 4.78171 10.4059 4.25573 10.4489C3.71715 10.4929 3.25797 10.5851 2.83778 10.7996C2.15944 11.146 1.60843 11.6986 1.26401 12.3779C1.05065 12.7987 0.959811 13.2582 0.917295 13.7969C0.875772 14.323 0.877639 14.975 0.879986 15.795L0.880061 15.8213L0.892019 20.0076Z" fill="#FB62AA"/>
<path d="M0.892019 20.0076L0.893728 20.6059H1.49202H6.67537H6.69715C7.3794 20.6059 7.92199 20.6059 8.36189 20.5758C8.81183 20.5451 9.19814 20.4809 9.55969 20.3308C10.4432 19.9642 11.1444 19.2609 11.5086 18.3764C11.6576 18.0144 11.7207 17.6279 11.7501 17.1779C11.7789 16.7379 11.7774 16.1953 11.7754 15.5131L11.7753 15.4913L11.7753 15.4696C11.7734 14.7909 11.7718 14.251 11.7407 13.8133C11.7089 13.3655 11.6441 12.981 11.4941 12.6211C11.1275 11.7414 10.4271 11.043 9.54637 10.6789C9.18602 10.5299 8.80138 10.4662 8.35348 10.4357C7.91565 10.4059 7.37581 10.4059 6.69712 10.4059L6.67537 10.4059H6.28004L6.25374 10.4059C5.43378 10.4059 4.78171 10.4059 4.25573 10.4489C3.71715 10.4929 3.25797 10.5851 2.83778 10.7996C2.15944 11.146 1.60843 11.6986 1.26401 12.3779C1.05065 12.7987 0.959811 13.2582 0.917295 13.7969C0.875772 14.323 0.877639 14.975 0.879986 15.795L0.880061 15.8213L0.892019 20.0076Z" fill="#B85EF0"/>
<path d="M0.892019 20.0076L0.893728 20.6059H1.49202H6.67537H6.69715C7.3794 20.6059 7.92199 20.6059 8.36189 20.5758C8.81183 20.5451 9.19814 20.4809 9.55969 20.3308C10.4432 19.9642 11.1444 19.2609 11.5086 18.3764C11.6576 18.0144 11.7207 17.6279 11.7501 17.1779C11.7789 16.7379 11.7774 16.1953 11.7754 15.5131L11.7753 15.4913L11.7753 15.4696C11.7734 14.7909 11.7718 14.251 11.7407 13.8133C11.7089 13.3655 11.6441 12.981 11.4941 12.6211C11.1275 11.7414 10.4271 11.043 9.54637 10.6789C9.18602 10.5299 8.80138 10.4662 8.35348 10.4357C7.91565 10.4059 7.37581 10.4059 6.69712 10.4059L6.67537 10.4059H6.28004L6.25374 10.4059C5.43378 10.4059 4.78171 10.4059 4.25573 10.4489C3.71715 10.4929 3.25797 10.5851 2.83778 10.7996C2.15944 11.146 1.60843 11.6986 1.26401 12.3779C1.05065 12.7987 0.959811 13.2582 0.917295 13.7969C0.875772 14.323 0.877639 14.975 0.879986 15.795L0.880061 15.8213L0.892019 20.0076Z" fill="#E5E5E5"/>
<path d="M0.892019 20.0076L0.893728 20.6059H1.49202H6.67537H6.69715C7.3794 20.6059 7.92199 20.6059 8.36189 20.5758C8.81183 20.5451 9.19814 20.4809 9.55969 20.3308C10.4432 19.9642 11.1444 19.2609 11.5086 18.3764C11.6576 18.0144 11.7207 17.6279 11.7501 17.1779C11.7789 16.7379 11.7774 16.1953 11.7754 15.5131L11.7753 15.4913L11.7753 15.4696C11.7734 14.7909 11.7718 14.251 11.7407 13.8133C11.7089 13.3655 11.6441 12.981 11.4941 12.6211C11.1275 11.7414 10.4271 11.043 9.54637 10.6789C9.18602 10.5299 8.80138 10.4662 8.35348 10.4357C7.91565 10.4059 7.37581 10.4059 6.69712 10.4059L6.67537 10.4059H6.28004L6.25374 10.4059C5.43378 10.4059 4.78171 10.4059 4.25573 10.4489C3.71715 10.4929 3.25797 10.5851 2.83778 10.7996C2.15944 11.146 1.60843 11.6986 1.26401 12.3779C1.05065 12.7987 0.959811 13.2582 0.917295 13.7969C0.875772 14.323 0.877639 14.975 0.879986 15.795L0.880061 15.8213L0.892019 20.0076Z" stroke="black" stroke-width="1.2"/>
</g>
<g id="BG">
<rect x="2.3877" y="11.8184" width="7.87702" height="7.13855" rx="3.56927" fill="#EA3EA5"/>
<rect x="2.3877" y="11.8184" width="7.87702" height="7.13855" rx="3.56927" fill="#B85EF0"/>
<rect x="2.3877" y="11.8184" width="7.87702" height="7.13855" rx="3.56927" fill="black"/>
</g>
<g id="Subtract">
<path d="M1.47803 15.7941C1.47803 14.114 1.47803 13.2739 1.80501 12.6322C2.09263 12.0677 2.55157 11.6087 3.11606 11.3211C3.75779 10.9941 4.59787 10.9941 6.27803 10.9941H7.17425C8.10422 10.9941 8.56921 10.9941 8.95071 11.0964C9.98598 11.3738 10.7946 12.1824 11.072 13.2177C11.1743 13.5992 11.1743 14.0642 11.1743 14.9941C11.1743 15.9241 11.1743 16.3891 11.072 16.7706C10.7946 17.8059 9.98598 18.6145 8.95071 18.8919C8.56921 18.9941 8.10422 18.9941 7.17425 18.9941H1.47803V15.7941Z" fill="#F6E0FA"/>
<path d="M1.47803 15.7941C1.47803 14.114 1.47803 13.2739 1.80501 12.6322C2.09263 12.0677 2.55157 11.6087 3.11606 11.3211C3.75779 10.9941 4.59787 10.9941 6.27803 10.9941H7.17425C8.10422 10.9941 8.56921 10.9941 8.95071 11.0964C9.98598 11.3738 10.7946 12.1824 11.072 13.2177C11.1743 13.5992 11.1743 14.0642 11.1743 14.9941C11.1743 15.9241 11.1743 16.3891 11.072 16.7706C10.7946 17.8059 9.98598 18.6145 8.95071 18.8919C8.56921 18.9941 8.10422 18.9941 7.17425 18.9941H1.47803V15.7941Z" fill="white"/>
</g>
<path id="Vector" d="M5.7391 17.9504C5.16782 17.9577 4.73816 17.5109 4.51326 17.2211C4.36333 17.0279 4.2688 16.8428 4.19259 16.6487L5.23959 16.3692C5.37144 16.5892 5.52148 16.7913 5.71657 16.9129L7.10792 16.8951C7.11714 16.895 7.19017 16.8408 7.29027 16.742C7.39038 16.6431 7.44475 16.5715 7.44464 16.5626L7.43815 16.0571C7.43781 16.0305 7.42837 16.0129 7.40983 16.0043L5.07089 15.4312C4.55319 15.3048 4.29849 14.8468 4.29291 14.4123L4.287 13.9512C4.28393 13.7117 4.30952 13.5517 4.47253 13.3279C4.60835 13.1399 4.89047 12.8613 5.07316 12.7348C5.30147 12.5723 5.46698 12.5435 5.71577 12.5403L7.00576 12.5238C7.57705 12.5165 8.01592 12.9632 8.2316 13.2531C8.38164 13.4552 8.47606 13.6313 8.55227 13.8255L7.50527 14.105C7.37343 13.885 7.22338 13.6829 7.02829 13.5612L5.74751 13.5776C5.7383 13.5778 5.66527 13.6319 5.56516 13.7308C5.46506 13.8296 5.41068 13.9013 5.41079 13.9101L5.41659 14.3624C5.41705 14.3979 5.44492 14.4153 5.44492 14.4153L7.79319 14.9971C8.30167 15.1236 8.56559 15.5815 8.57117 16.016L8.57765 16.5215C8.58072 16.7609 8.55513 16.9209 8.39211 17.1447C8.25629 17.3327 7.97418 17.6113 7.79148 17.7378C7.56318 17.9004 7.39766 17.9291 7.14888 17.9323L5.7391 17.9504Z" fill="black"/>
</g>
<g id="ID Inverted_2">
<g id="3D edge_2">
<path d="M7.39202 20.0076L7.39373 20.6059H7.99202H13.1754H13.1971C13.8794 20.6059 14.422 20.6059 14.8619 20.5758C15.3118 20.5451 15.6981 20.4809 16.0597 20.3308C16.9432 19.9642 17.6444 19.2609 18.0086 18.3764C18.1576 18.0144 18.2207 17.6279 18.2501 17.1779C18.2789 16.7379 18.2774 16.1953 18.2754 15.5131L18.2753 15.4913L18.2753 15.4696C18.2734 14.7909 18.2718 14.251 18.2407 13.8133C18.2089 13.3655 18.1441 12.981 17.9941 12.6211C17.6275 11.7414 16.9271 11.043 16.0464 10.6789C15.686 10.5299 15.3014 10.4662 14.8535 10.4357C14.4157 10.4059 13.8758 10.4059 13.1971 10.4059L13.1754 10.4059H12.78L12.7537 10.4059C11.9338 10.4059 11.2817 10.4059 10.7557 10.4489C10.2171 10.4929 9.75797 10.5851 9.33778 10.7996C8.65944 11.146 8.10843 11.6986 7.76401 12.3779C7.55065 12.7987 7.45981 13.2582 7.41729 13.7969C7.37577 14.323 7.37764 14.975 7.37999 15.795L7.38006 15.8213L7.39202 20.0076Z" fill="#FB62AA"/>
<path d="M7.39202 20.0076L7.39373 20.6059H7.99202H13.1754H13.1971C13.8794 20.6059 14.422 20.6059 14.8619 20.5758C15.3118 20.5451 15.6981 20.4809 16.0597 20.3308C16.9432 19.9642 17.6444 19.2609 18.0086 18.3764C18.1576 18.0144 18.2207 17.6279 18.2501 17.1779C18.2789 16.7379 18.2774 16.1953 18.2754 15.5131L18.2753 15.4913L18.2753 15.4696C18.2734 14.7909 18.2718 14.251 18.2407 13.8133C18.2089 13.3655 18.1441 12.981 17.9941 12.6211C17.6275 11.7414 16.9271 11.043 16.0464 10.6789C15.686 10.5299 15.3014 10.4662 14.8535 10.4357C14.4157 10.4059 13.8758 10.4059 13.1971 10.4059L13.1754 10.4059H12.78L12.7537 10.4059C11.9338 10.4059 11.2817 10.4059 10.7557 10.4489C10.2171 10.4929 9.75797 10.5851 9.33778 10.7996C8.65944 11.146 8.10843 11.6986 7.76401 12.3779C7.55065 12.7987 7.45981 13.2582 7.41729 13.7969C7.37577 14.323 7.37764 14.975 7.37999 15.795L7.38006 15.8213L7.39202 20.0076Z" fill="#B85EF0"/>
<path d="M7.39202 20.0076L7.39373 20.6059H7.99202H13.1754H13.1971C13.8794 20.6059 14.422 20.6059 14.8619 20.5758C15.3118 20.5451 15.6981 20.4809 16.0597 20.3308C16.9432 19.9642 17.6444 19.2609 18.0086 18.3764C18.1576 18.0144 18.2207 17.6279 18.2501 17.1779C18.2789 16.7379 18.2774 16.1953 18.2754 15.5131L18.2753 15.4913L18.2753 15.4696C18.2734 14.7909 18.2718 14.251 18.2407 13.8133C18.2089 13.3655 18.1441 12.981 17.9941 12.6211C17.6275 11.7414 16.9271 11.043 16.0464 10.6789C15.686 10.5299 15.3014 10.4662 14.8535 10.4357C14.4157 10.4059 13.8758 10.4059 13.1971 10.4059L13.1754 10.4059H12.78L12.7537 10.4059C11.9338 10.4059 11.2817 10.4059 10.7557 10.4489C10.2171 10.4929 9.75797 10.5851 9.33778 10.7996C8.65944 11.146 8.10843 11.6986 7.76401 12.3779C7.55065 12.7987 7.45981 13.2582 7.41729 13.7969C7.37577 14.323 7.37764 14.975 7.37999 15.795L7.38006 15.8213L7.39202 20.0076Z" fill="#E5E5E5"/>
<path d="M7.39202 20.0076L7.39373 20.6059H7.99202H13.1754H13.1971C13.8794 20.6059 14.422 20.6059 14.8619 20.5758C15.3118 20.5451 15.6981 20.4809 16.0597 20.3308C16.9432 19.9642 17.6444 19.2609 18.0086 18.3764C18.1576 18.0144 18.2207 17.6279 18.2501 17.1779C18.2789 16.7379 18.2774 16.1953 18.2754 15.5131L18.2753 15.4913L18.2753 15.4696C18.2734 14.7909 18.2718 14.251 18.2407 13.8133C18.2089 13.3655 18.1441 12.981 17.9941 12.6211C17.6275 11.7414 16.9271 11.043 16.0464 10.6789C15.686 10.5299 15.3014 10.4662 14.8535 10.4357C14.4157 10.4059 13.8758 10.4059 13.1971 10.4059L13.1754 10.4059H12.78L12.7537 10.4059C11.9338 10.4059 11.2817 10.4059 10.7557 10.4489C10.2171 10.4929 9.75797 10.5851 9.33778 10.7996C8.65944 11.146 8.10843 11.6986 7.76401 12.3779C7.55065 12.7987 7.45981 13.2582 7.41729 13.7969C7.37577 14.323 7.37764 14.975 7.37999 15.795L7.38006 15.8213L7.39202 20.0076Z" stroke="black" stroke-width="1.2"/>
</g>
<g id="BG_2">
<rect x="8.8877" y="11.8184" width="7.87702" height="7.13855" rx="3.56927" fill="#EA3EA5"/>
<rect x="8.8877" y="11.8184" width="7.87702" height="7.13855" rx="3.56927" fill="#B85EF0"/>
<rect x="8.8877" y="11.8184" width="7.87702" height="7.13855" rx="3.56927" fill="black"/>
</g>
<g id="Subtract_2">
<path d="M7.97803 15.7941C7.97803 14.114 7.97803 13.2739 8.30501 12.6322C8.59263 12.0677 9.05157 11.6087 9.61606 11.3211C10.2578 10.9941 11.0979 10.9941 12.778 10.9941H13.6743C14.6042 10.9941 15.0692 10.9941 15.4507 11.0964C16.486 11.3738 17.2946 12.1824 17.572 13.2177C17.6743 13.5992 17.6743 14.0642 17.6743 14.9941C17.6743 15.9241 17.6743 16.3891 17.572 16.7706C17.2946 17.8059 16.486 18.6145 15.4507 18.8919C15.0692 18.9941 14.6042 18.9941 13.6743 18.9941H7.97803V15.7941Z" fill="#F6E0FA"/>
<path d="M7.97803 15.7941C7.97803 14.114 7.97803 13.2739 8.30501 12.6322C8.59263 12.0677 9.05157 11.6087 9.61606 11.3211C10.2578 10.9941 11.0979 10.9941 12.778 10.9941H13.6743C14.6042 10.9941 15.0692 10.9941 15.4507 11.0964C16.486 11.3738 17.2946 12.1824 17.572 13.2177C17.6743 13.5992 17.6743 14.0642 17.6743 14.9941C17.6743 15.9241 17.6743 16.3891 17.572 16.7706C17.2946 17.8059 16.486 18.6145 15.4507 18.8919C15.0692 18.9941 14.6042 18.9941 13.6743 18.9941H7.97803V15.7941Z" fill="white"/>
</g>
<path id="Vector_2" d="M12.2391 17.9504C11.6678 17.9577 11.2382 17.5109 11.0133 17.2211C10.8633 17.0279 10.7688 16.8428 10.6926 16.6487L11.7396 16.3692C11.8714 16.5892 12.0215 16.7913 12.2166 16.9129L13.6079 16.8951C13.6171 16.895 13.6902 16.8408 13.7903 16.742C13.8904 16.6431 13.9448 16.5715 13.9446 16.5626L13.9382 16.0571C13.9378 16.0305 13.9284 16.0129 13.9098 16.0043L11.5709 15.4312C11.0532 15.3048 10.7985 14.8468 10.7929 14.4123L10.787 13.9512C10.7839 13.7117 10.8095 13.5517 10.9725 13.3279C11.1084 13.1399 11.3905 12.8613 11.5732 12.7348C11.8015 12.5723 11.967 12.5435 12.2158 12.5403L13.5058 12.5238C14.077 12.5165 14.5159 12.9632 14.7316 13.2531C14.8816 13.4552 14.9761 13.6313 15.0523 13.8255L14.0053 14.105C13.8734 13.885 13.7234 13.6829 13.5283 13.5612L12.2475 13.5776C12.2383 13.5778 12.1653 13.6319 12.0652 13.7308C11.9651 13.8296 11.9107 13.9013 11.9108 13.9101L11.9166 14.3624C11.917 14.3979 11.9449 14.4153 11.9449 14.4153L14.2932 14.9971C14.8017 15.1236 15.0656 15.5815 15.0712 16.016L15.0777 16.5215C15.0807 16.7609 15.0551 16.9209 14.8921 17.1447C14.7563 17.3327 14.4742 17.6113 14.2915 17.7378C14.0632 17.9004 13.8977 17.9291 13.6489 17.9323L12.2391 17.9504Z" fill="black"/>
</g>
<g id="ID Inverted_3">
<g id="3D edge_3">
<path d="M7.39202 17.0076L7.39373 17.6059H7.99202H13.1754H13.1971C13.8794 17.6059 14.422 17.6059 14.8619 17.5758C15.3118 17.5451 15.6981 17.4809 16.0597 17.3308C16.9432 16.9642 17.6444 16.2609 18.0086 15.3764C18.1576 15.0144 18.2207 14.6279 18.2501 14.1779C18.2789 13.7379 18.2774 13.1953 18.2754 12.5131L18.2753 12.4913L18.2753 12.4696C18.2734 11.7909 18.2718 11.251 18.2407 10.8133C18.2089 10.3655 18.1441 9.981 17.9941 9.62108C17.6275 8.74141 16.9271 8.04298 16.0464 7.67891C15.686 7.52995 15.3014 7.46621 14.8535 7.43569C14.4157 7.40585 13.8758 7.40586 13.1971 7.40586L13.1754 7.40586H12.78L12.7537 7.40586C11.9338 7.40585 11.2817 7.40585 10.7557 7.44888C10.2171 7.49293 9.75797 7.58508 9.33778 7.79964C8.65944 8.146 8.10843 8.69858 7.76401 9.37791C7.55065 9.79872 7.45981 10.2582 7.41729 10.7969C7.37577 11.323 7.37764 11.975 7.37999 12.795L7.38006 12.8213L7.39202 17.0076Z" fill="#FB62AA"/>
<path d="M7.39202 17.0076L7.39373 17.6059H7.99202H13.1754H13.1971C13.8794 17.6059 14.422 17.6059 14.8619 17.5758C15.3118 17.5451 15.6981 17.4809 16.0597 17.3308C16.9432 16.9642 17.6444 16.2609 18.0086 15.3764C18.1576 15.0144 18.2207 14.6279 18.2501 14.1779C18.2789 13.7379 18.2774 13.1953 18.2754 12.5131L18.2753 12.4913L18.2753 12.4696C18.2734 11.7909 18.2718 11.251 18.2407 10.8133C18.2089 10.3655 18.1441 9.981 17.9941 9.62108C17.6275 8.74141 16.9271 8.04298 16.0464 7.67891C15.686 7.52995 15.3014 7.46621 14.8535 7.43569C14.4157 7.40585 13.8758 7.40586 13.1971 7.40586L13.1754 7.40586H12.78L12.7537 7.40586C11.9338 7.40585 11.2817 7.40585 10.7557 7.44888C10.2171 7.49293 9.75797 7.58508 9.33778 7.79964C8.65944 8.146 8.10843 8.69858 7.76401 9.37791C7.55065 9.79872 7.45981 10.2582 7.41729 10.7969C7.37577 11.323 7.37764 11.975 7.37999 12.795L7.38006 12.8213L7.39202 17.0076Z" fill="#B85EF0"/>
<path d="M7.39202 17.0076L7.39373 17.6059H7.99202H13.1754H13.1971C13.8794 17.6059 14.422 17.6059 14.8619 17.5758C15.3118 17.5451 15.6981 17.4809 16.0597 17.3308C16.9432 16.9642 17.6444 16.2609 18.0086 15.3764C18.1576 15.0144 18.2207 14.6279 18.2501 14.1779C18.2789 13.7379 18.2774 13.1953 18.2754 12.5131L18.2753 12.4913L18.2753 12.4696C18.2734 11.7909 18.2718 11.251 18.2407 10.8133C18.2089 10.3655 18.1441 9.981 17.9941 9.62108C17.6275 8.74141 16.9271 8.04298 16.0464 7.67891C15.686 7.52995 15.3014 7.46621 14.8535 7.43569C14.4157 7.40585 13.8758 7.40586 13.1971 7.40586L13.1754 7.40586H12.78L12.7537 7.40586C11.9338 7.40585 11.2817 7.40585 10.7557 7.44888C10.2171 7.49293 9.75797 7.58508 9.33778 7.79964C8.65944 8.146 8.10843 8.69858 7.76401 9.37791C7.55065 9.79872 7.45981 10.2582 7.41729 10.7969C7.37577 11.323 7.37764 11.975 7.37999 12.795L7.38006 12.8213L7.39202 17.0076Z" fill="#E5E5E5"/>
<path d="M7.39202 17.0076L7.39373 17.6059H7.99202H13.1754H13.1971C13.8794 17.6059 14.422 17.6059 14.8619 17.5758C15.3118 17.5451 15.6981 17.4809 16.0597 17.3308C16.9432 16.9642 17.6444 16.2609 18.0086 15.3764C18.1576 15.0144 18.2207 14.6279 18.2501 14.1779C18.2789 13.7379 18.2774 13.1953 18.2754 12.5131L18.2753 12.4913L18.2753 12.4696C18.2734 11.7909 18.2718 11.251 18.2407 10.8133C18.2089 10.3655 18.1441 9.981 17.9941 9.62108C17.6275 8.74141 16.9271 8.04298 16.0464 7.67891C15.686 7.52995 15.3014 7.46621 14.8535 7.43569C14.4157 7.40585 13.8758 7.40586 13.1971 7.40586L13.1754 7.40586H12.78L12.7537 7.40586C11.9338 7.40585 11.2817 7.40585 10.7557 7.44888C10.2171 7.49293 9.75797 7.58508 9.33778 7.79964C8.65944 8.146 8.10843 8.69858 7.76401 9.37791C7.55065 9.79872 7.45981 10.2582 7.41729 10.7969C7.37577 11.323 7.37764 11.975 7.37999 12.795L7.38006 12.8213L7.39202 17.0076Z" stroke="black" stroke-width="1.2"/>
</g>
<g id="BG_3">
<rect x="8.8877" y="8.81836" width="7.87702" height="7.13855" rx="3.56927" fill="#EA3EA5"/>
<rect x="8.8877" y="8.81836" width="7.87702" height="7.13855" rx="3.56927" fill="#B85EF0"/>
<rect x="8.8877" y="8.81836" width="7.87702" height="7.13855" rx="3.56927" fill="black"/>
</g>
<g id="Subtract_3">
<path d="M7.97803 12.7941C7.97803 11.114 7.97803 10.2739 8.30501 9.63217C8.59263 9.06768 9.05157 8.60874 9.61606 8.32112C10.2578 7.99414 11.0979 7.99414 12.778 7.99414L13.6743 7.99414C14.6042 7.99414 15.0692 7.99414 15.4507 8.09636C16.486 8.37376 17.2946 9.18241 17.572 10.2177C17.6743 10.5992 17.6743 11.0642 17.6743 11.9941C17.6743 12.9241 17.6743 13.3891 17.572 13.7706C17.2946 14.8059 16.486 15.6145 15.4507 15.8919C15.0692 15.9941 14.6042 15.9941 13.6743 15.9941H7.97803V12.7941Z" fill="#F6E0FA"/>
<path d="M7.97803 12.7941C7.97803 11.114 7.97803 10.2739 8.30501 9.63217C8.59263 9.06768 9.05157 8.60874 9.61606 8.32112C10.2578 7.99414 11.0979 7.99414 12.778 7.99414L13.6743 7.99414C14.6042 7.99414 15.0692 7.99414 15.4507 8.09636C16.486 8.37376 17.2946 9.18241 17.572 10.2177C17.6743 10.5992 17.6743 11.0642 17.6743 11.9941C17.6743 12.9241 17.6743 13.3891 17.572 13.7706C17.2946 14.8059 16.486 15.6145 15.4507 15.8919C15.0692 15.9941 14.6042 15.9941 13.6743 15.9941H7.97803V12.7941Z" fill="white"/>
</g>
<path id="Vector_3" d="M12.2391 14.9504C11.6678 14.9577 11.2382 14.5109 11.0133 14.2211C10.8633 14.0279 10.7688 13.8428 10.6926 13.6487L11.7396 13.3692C11.8714 13.5892 12.0215 13.7913 12.2166 13.9129L13.6079 13.8951C13.6171 13.895 13.6902 13.8408 13.7903 13.742C13.8904 13.6431 13.9448 13.5715 13.9446 13.5626L13.9382 13.0571C13.9378 13.0305 13.9284 13.0129 13.9098 13.0043L11.5709 12.4312C11.0532 12.3048 10.7985 11.8468 10.7929 11.4123L10.787 10.9512C10.7839 10.7117 10.8095 10.5517 10.9725 10.3279C11.1084 10.1399 11.3905 9.86135 11.5732 9.73483C11.8015 9.57225 11.967 9.54352 12.2158 9.54033L13.5058 9.52378C14.077 9.51645 14.5159 9.96316 14.7316 10.2531C14.8816 10.4552 14.9761 10.6313 15.0523 10.8255L14.0053 11.105C13.8734 10.885 13.7234 10.6829 13.5283 10.5612L12.2475 10.5776C12.2383 10.5778 12.1653 10.6319 12.0652 10.7308C11.9651 10.8296 11.9107 10.9013 11.9108 10.9101L11.9166 11.3624C11.917 11.3979 11.9449 11.4153 11.9449 11.4153L14.2932 11.9971C14.8017 12.1236 15.0656 12.5815 15.0712 13.016L15.0777 13.5215C15.0807 13.7609 15.0551 13.9209 14.8921 14.1447C14.7563 14.3327 14.4742 14.6113 14.2915 14.7378C14.0632 14.9004 13.8977 14.9291 13.6489 14.9323L12.2391 14.9504Z" fill="black"/>
</g>
<g id="ID Inverted_4">
<g id="3D edge_4">
<path d="M13.7984 19.9214L13.8 20.5198H14.3984H21.7208H21.747C22.5669 20.5198 23.2189 20.5198 23.7448 20.4768C24.2833 20.4328 24.7424 20.3406 25.1626 20.1261C25.8409 19.7798 26.3919 19.2273 26.7363 18.5481C26.9497 18.1274 27.0406 17.668 27.0832 17.1294C27.1248 16.6033 27.123 15.9513 27.1208 15.1315L27.1207 15.1052L27.1145 12.7957L27.1144 12.7694C27.1122 11.9536 27.1105 11.3048 27.0663 10.7813C27.0211 10.2452 26.9284 9.78819 26.7142 9.36983C26.3684 8.69428 25.8179 8.1453 25.1414 7.80131C24.7225 7.58828 24.2652 7.49674 23.729 7.45298C23.2054 7.41025 22.5565 7.41025 21.7407 7.41025L21.7145 7.41025L19.1792 7.41025L19.1529 7.41025C18.3331 7.41025 17.6811 7.41025 17.1552 7.45326C16.6166 7.49731 16.1575 7.58944 15.7374 7.80396C15.0591 8.15025 14.5081 8.70274 14.1636 9.38196C13.9502 9.8027 13.8593 10.2621 13.8168 10.8007C13.7752 11.3267 13.7769 11.9787 13.7791 12.7986L13.7792 12.8248L13.7984 19.9214Z" fill="#FB62AA"/>
<path d="M13.7984 19.9214L13.8 20.5198H14.3984H21.7208H21.747C22.5669 20.5198 23.2189 20.5198 23.7448 20.4768C24.2833 20.4328 24.7424 20.3406 25.1626 20.1261C25.8409 19.7798 26.3919 19.2273 26.7363 18.5481C26.9497 18.1274 27.0406 17.668 27.0832 17.1294C27.1248 16.6033 27.123 15.9513 27.1208 15.1315L27.1207 15.1052L27.1145 12.7957L27.1144 12.7694C27.1122 11.9536 27.1105 11.3048 27.0663 10.7813C27.0211 10.2452 26.9284 9.78819 26.7142 9.36983C26.3684 8.69428 25.8179 8.1453 25.1414 7.80131C24.7225 7.58828 24.2652 7.49674 23.729 7.45298C23.2054 7.41025 22.5565 7.41025 21.7407 7.41025L21.7145 7.41025L19.1792 7.41025L19.1529 7.41025C18.3331 7.41025 17.6811 7.41025 17.1552 7.45326C16.6166 7.49731 16.1575 7.58944 15.7374 7.80396C15.0591 8.15025 14.5081 8.70274 14.1636 9.38196C13.9502 9.8027 13.8593 10.2621 13.8168 10.8007C13.7752 11.3267 13.7769 11.9787 13.7791 12.7986L13.7792 12.8248L13.7984 19.9214Z" fill="#B85EF0"/>
<path d="M13.7984 19.9214L13.8 20.5198H14.3984H21.7208H21.747C22.5669 20.5198 23.2189 20.5198 23.7448 20.4768C24.2833 20.4328 24.7424 20.3406 25.1626 20.1261C25.8409 19.7798 26.3919 19.2273 26.7363 18.5481C26.9497 18.1274 27.0406 17.668 27.0832 17.1294C27.1248 16.6033 27.123 15.9513 27.1208 15.1315L27.1207 15.1052L27.1145 12.7957L27.1144 12.7694C27.1122 11.9536 27.1105 11.3048 27.0663 10.7813C27.0211 10.2452 26.9284 9.78819 26.7142 9.36983C26.3684 8.69428 25.8179 8.1453 25.1414 7.80131C24.7225 7.58828 24.2652 7.49674 23.729 7.45298C23.2054 7.41025 22.5565 7.41025 21.7407 7.41025L21.7145 7.41025L19.1792 7.41025L19.1529 7.41025C18.3331 7.41025 17.6811 7.41025 17.1552 7.45326C16.6166 7.49731 16.1575 7.58944 15.7374 7.80396C15.0591 8.15025 14.5081 8.70274 14.1636 9.38196C13.9502 9.8027 13.8593 10.2621 13.8168 10.8007C13.7752 11.3267 13.7769 11.9787 13.7791 12.7986L13.7792 12.8248L13.7984 19.9214Z" fill="#E5E5E5"/>
<path d="M13.7984 19.9214L13.8 20.5198H14.3984H21.7208H21.747C22.5669 20.5198 23.2189 20.5198 23.7448 20.4768C24.2833 20.4328 24.7424 20.3406 25.1626 20.1261C25.8409 19.7798 26.3919 19.2273 26.7363 18.5481C26.9497 18.1274 27.0406 17.668 27.0832 17.1294C27.1248 16.6033 27.123 15.9513 27.1208 15.1315L27.1207 15.1052L27.1145 12.7957L27.1144 12.7694C27.1122 11.9536 27.1105 11.3048 27.0663 10.7813C27.0211 10.2452 26.9284 9.78819 26.7142 9.36983C26.3684 8.69428 25.8179 8.1453 25.1414 7.80131C24.7225 7.58828 24.2652 7.49674 23.729 7.45298C23.2054 7.41025 22.5565 7.41025 21.7407 7.41025L21.7145 7.41025L19.1792 7.41025L19.1529 7.41025C18.3331 7.41025 17.6811 7.41025 17.1552 7.45326C16.6166 7.49731 16.1575 7.58944 15.7374 7.80396C15.0591 8.15025 14.5081 8.70274 14.1636 9.38196C13.9502 9.8027 13.8593 10.2621 13.8168 10.8007C13.7752 11.3267 13.7769 11.9787 13.7791 12.7986L13.7792 12.8248L13.7984 19.9214Z" stroke="black" stroke-width="1.2"/>
</g>
<g id="BG_4">
<rect x="15.5195" y="9.02612" width="9.85852" height="8.93428" rx="4.46714" fill="#EA3EA5"/>
<rect x="15.5195" y="9.02612" width="9.85852" height="8.93428" rx="4.46714" fill="#B85EF0"/>
<rect x="15.5195" y="9.02612" width="9.85852" height="8.93428" rx="4.46714" fill="black"/>
</g>
<g id="Subtract_4">
<path d="M14.3809 12.7941C14.3809 11.114 14.3809 10.2739 14.7078 9.63217C14.9955 9.06768 15.4544 8.60874 16.0189 8.32112C16.6606 7.99414 17.5007 7.99414 19.1809 7.99414L21.7162 7.99414C23.3964 7.99414 24.2365 7.99414 24.8782 8.32112C25.4427 8.60874 25.9016 9.06768 26.1892 9.63217C26.5162 10.2739 26.5162 11.114 26.5162 12.7941V14.1918C26.5162 15.872 26.5162 16.712 26.1892 17.3538C25.9016 17.9183 25.4427 18.3772 24.8782 18.6648C24.2365 18.9918 23.3964 18.9918 21.7162 18.9918H14.3809V12.7941Z" fill="#F6E0FA"/>
<path d="M14.3809 12.7941C14.3809 11.114 14.3809 10.2739 14.7078 9.63217C14.9955 9.06768 15.4544 8.60874 16.0189 8.32112C16.6606 7.99414 17.5007 7.99414 19.1809 7.99414L21.7162 7.99414C23.3964 7.99414 24.2365 7.99414 24.8782 8.32112C25.4427 8.60874 25.9016 9.06768 26.1892 9.63217C26.5162 10.2739 26.5162 11.114 26.5162 12.7941V14.1918C26.5162 15.872 26.5162 16.712 26.1892 17.3538C25.9016 17.9183 25.4427 18.3772 24.8782 18.6648C24.2365 18.9918 23.3964 18.9918 21.7162 18.9918H14.3809V12.7941Z" fill="white"/>
</g>
<path id="Vector_4" d="M19.7141 16.7C18.9991 16.7092 18.4613 16.15 18.1799 15.7873C17.9922 15.5455 17.8739 15.3139 17.7785 15.0709L19.0889 14.721C19.2539 14.9964 19.4417 15.2493 19.6859 15.4016L21.4272 15.3793C21.4388 15.3791 21.5302 15.3113 21.6555 15.1876C21.7807 15.0639 21.8488 14.9742 21.8487 14.9631L21.8405 14.3305C21.8401 14.2972 21.8283 14.2752 21.8051 14.2644L18.8778 13.5471C18.2299 13.3889 17.9111 12.8158 17.9041 12.2719L17.8967 11.6948C17.8929 11.3951 17.9249 11.1949 18.1289 10.9148C18.2989 10.6795 18.652 10.3308 18.8806 10.1725C19.1664 9.969 19.3735 9.93304 19.6849 9.92905L21.2994 9.90833C22.0144 9.89916 22.5636 10.4582 22.8336 10.8211C23.0214 11.074 23.1395 11.2945 23.2349 11.5375L21.9245 11.8873C21.7595 11.6119 21.5717 11.359 21.3276 11.2067L19.7246 11.2273C19.7131 11.2275 19.6217 11.2952 19.4964 11.4189C19.3711 11.5427 19.303 11.6323 19.3032 11.6434L19.3104 12.2095C19.311 12.2539 19.3459 12.2756 19.3459 12.2756L22.2849 13.0038C22.9213 13.1622 23.2516 13.7352 23.2586 14.279L23.2667 14.9117C23.2705 15.2113 23.2385 15.4115 23.0345 15.6917C22.8645 15.927 22.5114 16.2756 22.2828 16.434C21.997 16.6374 21.7899 16.6734 21.4785 16.6774L19.7141 16.7Z" fill="black"/>
</g>
<g id="ID Inverted_5">
<g id="3D edge_5">
<path d="M13.7984 16.9214L13.8 17.5198H14.3984H21.7208H21.747C22.5669 17.5198 23.2189 17.5198 23.7448 17.4768C24.2833 17.4328 24.7424 17.3406 25.1626 17.1261C25.8409 16.7798 26.3919 16.2273 26.7363 15.5481C26.9497 15.1274 27.0406 14.668 27.0832 14.1294C27.1248 13.6033 27.123 12.9513 27.1208 12.1315L27.1207 12.1052L27.1145 9.79567L27.1144 9.76943C27.1122 8.95363 27.1105 8.30478 27.0663 7.78131C27.0211 7.24522 26.9284 6.78819 26.7142 6.36983C26.3684 5.69428 25.8179 5.1453 25.1414 4.80131C24.7225 4.58828 24.2652 4.49674 23.729 4.45298C23.2054 4.41025 22.5565 4.41025 21.7407 4.41025L21.7145 4.41025L19.1792 4.41025L19.1529 4.41025C18.3331 4.41025 17.6811 4.41025 17.1552 4.45326C16.6166 4.49731 16.1575 4.58944 15.7374 4.80396C15.0591 5.15025 14.5081 5.70274 14.1636 6.38196C13.9502 6.8027 13.8593 7.26207 13.8168 7.8007C13.7752 8.32673 13.7769 8.97871 13.7791 9.79855L13.7792 9.82485L13.7984 16.9214Z" fill="#FB62AA"/>
<path d="M13.7984 16.9214L13.8 17.5198H14.3984H21.7208H21.747C22.5669 17.5198 23.2189 17.5198 23.7448 17.4768C24.2833 17.4328 24.7424 17.3406 25.1626 17.1261C25.8409 16.7798 26.3919 16.2273 26.7363 15.5481C26.9497 15.1274 27.0406 14.668 27.0832 14.1294C27.1248 13.6033 27.123 12.9513 27.1208 12.1315L27.1207 12.1052L27.1145 9.79567L27.1144 9.76943C27.1122 8.95363 27.1105 8.30478 27.0663 7.78131C27.0211 7.24522 26.9284 6.78819 26.7142 6.36983C26.3684 5.69428 25.8179 5.1453 25.1414 4.80131C24.7225 4.58828 24.2652 4.49674 23.729 4.45298C23.2054 4.41025 22.5565 4.41025 21.7407 4.41025L21.7145 4.41025L19.1792 4.41025L19.1529 4.41025C18.3331 4.41025 17.6811 4.41025 17.1552 4.45326C16.6166 4.49731 16.1575 4.58944 15.7374 4.80396C15.0591 5.15025 14.5081 5.70274 14.1636 6.38196C13.9502 6.8027 13.8593 7.26207 13.8168 7.8007C13.7752 8.32673 13.7769 8.97871 13.7791 9.79855L13.7792 9.82485L13.7984 16.9214Z" fill="#B85EF0"/>
<path d="M13.7984 16.9214L13.8 17.5198H14.3984H21.7208H21.747C22.5669 17.5198 23.2189 17.5198 23.7448 17.4768C24.2833 17.4328 24.7424 17.3406 25.1626 17.1261C25.8409 16.7798 26.3919 16.2273 26.7363 15.5481C26.9497 15.1274 27.0406 14.668 27.0832 14.1294C27.1248 13.6033 27.123 12.9513 27.1208 12.1315L27.1207 12.1052L27.1145 9.79567L27.1144 9.76943C27.1122 8.95363 27.1105 8.30478 27.0663 7.78131C27.0211 7.24522 26.9284 6.78819 26.7142 6.36983C26.3684 5.69428 25.8179 5.1453 25.1414 4.80131C24.7225 4.58828 24.2652 4.49674 23.729 4.45298C23.2054 4.41025 22.5565 4.41025 21.7407 4.41025L21.7145 4.41025L19.1792 4.41025L19.1529 4.41025C18.3331 4.41025 17.6811 4.41025 17.1552 4.45326C16.6166 4.49731 16.1575 4.58944 15.7374 4.80396C15.0591 5.15025 14.5081 5.70274 14.1636 6.38196C13.9502 6.8027 13.8593 7.26207 13.8168 7.8007C13.7752 8.32673 13.7769 8.97871 13.7791 9.79855L13.7792 9.82485L13.7984 16.9214Z" fill="#E5E5E5"/>
<path d="M13.7984 16.9214L13.8 17.5198H14.3984H21.7208H21.747C22.5669 17.5198 23.2189 17.5198 23.7448 17.4768C24.2833 17.4328 24.7424 17.3406 25.1626 17.1261C25.8409 16.7798 26.3919 16.2273 26.7363 15.5481C26.9497 15.1274 27.0406 14.668 27.0832 14.1294C27.1248 13.6033 27.123 12.9513 27.1208 12.1315L27.1207 12.1052L27.1145 9.79567L27.1144 9.76943C27.1122 8.95363 27.1105 8.30478 27.0663 7.78131C27.0211 7.24522 26.9284 6.78819 26.7142 6.36983C26.3684 5.69428 25.8179 5.1453 25.1414 4.80131C24.7225 4.58828 24.2652 4.49674 23.729 4.45298C23.2054 4.41025 22.5565 4.41025 21.7407 4.41025L21.7145 4.41025L19.1792 4.41025L19.1529 4.41025C18.3331 4.41025 17.6811 4.41025 17.1552 4.45326C16.6166 4.49731 16.1575 4.58944 15.7374 4.80396C15.0591 5.15025 14.5081 5.70274 14.1636 6.38196C13.9502 6.8027 13.8593 7.26207 13.8168 7.8007C13.7752 8.32673 13.7769 8.97871 13.7791 9.79855L13.7792 9.82485L13.7984 16.9214Z" stroke="black" stroke-width="1.2"/>
</g>
<g id="BG_5">
<rect x="15.5195" y="6.02612" width="9.85852" height="8.93428" rx="4.46714" fill="#EA3EA5"/>
<rect x="15.5195" y="6.02612" width="9.85852" height="8.93428" rx="4.46714" fill="#B85EF0"/>
<rect x="15.5195" y="6.02612" width="9.85852" height="8.93428" rx="4.46714" fill="black"/>
</g>
<g id="Subtract_5">
<path d="M14.3809 9.79414C14.3809 8.11398 14.3809 7.2739 14.7078 6.63217C14.9955 6.06768 15.4544 5.60874 16.0189 5.32112C16.6606 4.99414 17.5007 4.99414 19.1809 4.99414L21.7162 4.99414C23.3964 4.99414 24.2365 4.99414 24.8782 5.32112C25.4427 5.60874 25.9016 6.06768 26.1892 6.63217C26.5162 7.2739 26.5162 8.11398 26.5162 9.79414V11.1918C26.5162 12.872 26.5162 13.712 26.1892 14.3538C25.9016 14.9183 25.4427 15.3772 24.8782 15.6648C24.2365 15.9918 23.3964 15.9918 21.7162 15.9918H14.3809V9.79414Z" fill="#F6E0FA"/>
<path d="M14.3809 9.79414C14.3809 8.11398 14.3809 7.2739 14.7078 6.63217C14.9955 6.06768 15.4544 5.60874 16.0189 5.32112C16.6606 4.99414 17.5007 4.99414 19.1809 4.99414L21.7162 4.99414C23.3964 4.99414 24.2365 4.99414 24.8782 5.32112C25.4427 5.60874 25.9016 6.06768 26.1892 6.63217C26.5162 7.2739 26.5162 8.11398 26.5162 9.79414V11.1918C26.5162 12.872 26.5162 13.712 26.1892 14.3538C25.9016 14.9183 25.4427 15.3772 24.8782 15.6648C24.2365 15.9918 23.3964 15.9918 21.7162 15.9918H14.3809V9.79414Z" fill="white"/>
</g>
<path id="Vector_5" d="M19.7141 13.7C18.9991 13.7092 18.4613 13.15 18.1799 12.7873C17.9922 12.5455 17.8739 12.3139 17.7785 12.0709L19.0889 11.721C19.2539 11.9964 19.4417 12.2493 19.6859 12.4016L21.4272 12.3793C21.4388 12.3791 21.5302 12.3113 21.6555 12.1876C21.7807 12.0639 21.8488 11.9742 21.8487 11.9631L21.8405 11.3305C21.8401 11.2972 21.8283 11.2752 21.8051 11.2644L18.8778 10.5471C18.2299 10.3889 17.9111 9.81575 17.9041 9.27191L17.8967 8.69478C17.8929 8.39511 17.9249 8.19489 18.1289 7.91476C18.2989 7.67947 18.652 7.33082 18.8806 7.17248C19.1664 6.969 19.3735 6.93304 19.6849 6.92905L21.2994 6.90833C22.0144 6.89916 22.5636 7.45824 22.8336 7.8211C23.0214 8.074 23.1395 8.2945 23.2349 8.53748L21.9245 8.88731C21.7595 8.61192 21.5717 8.35901 21.3276 8.20674L19.7246 8.2273C19.7131 8.22745 19.6217 8.29523 19.4964 8.41894C19.3711 8.54265 19.303 8.63233 19.3032 8.64343L19.3104 9.20947C19.311 9.25386 19.3459 9.27562 19.3459 9.27562L22.2849 10.0038C22.9213 10.1622 23.2516 10.7352 23.2586 11.279L23.2667 11.9117C23.2705 12.2113 23.2385 12.4115 23.0345 12.6917C22.8645 12.927 22.5114 13.2756 22.2828 13.434C21.997 13.6374 21.7899 13.6734 21.4785 13.6774L19.7141 13.7Z" fill="black"/>
</g>
<g id="ID Inverted_6">
<g id="3D edge_6">
<path d="M13.7984 13.9214L13.8 14.5198H14.3984H21.7208H21.747C22.5669 14.5198 23.2189 14.5198 23.7448 14.4768C24.2833 14.4328 24.7424 14.3406 25.1626 14.1261C25.8409 13.7798 26.3919 13.2273 26.7363 12.5481C26.9497 12.1274 27.0406 11.668 27.0832 11.1294C27.1248 10.6033 27.123 9.95134 27.1208 9.13146L27.1207 9.10524L27.1145 6.79567L27.1144 6.76943C27.1122 5.95363 27.1105 5.30478 27.0663 4.78131C27.0211 4.24522 26.9284 3.78819 26.7142 3.36983C26.3684 2.69428 25.8179 2.1453 25.1414 1.80131C24.7225 1.58828 24.2652 1.49674 23.729 1.45298C23.2054 1.41025 22.5565 1.41025 21.7407 1.41025L21.7145 1.41025L19.1792 1.41025L19.1529 1.41025C18.3331 1.41025 17.6811 1.41025 17.1552 1.45326C16.6166 1.49731 16.1575 1.58944 15.7374 1.80396C15.0591 2.15025 14.5081 2.70274 14.1636 3.38196C13.9502 3.8027 13.8593 4.26207 13.8168 4.8007C13.7752 5.32673 13.7769 5.97871 13.7791 6.79855L13.7792 6.82485L13.7984 13.9214Z" fill="#FB62AA"/>
<path d="M13.7984 13.9214L13.8 14.5198H14.3984H21.7208H21.747C22.5669 14.5198 23.2189 14.5198 23.7448 14.4768C24.2833 14.4328 24.7424 14.3406 25.1626 14.1261C25.8409 13.7798 26.3919 13.2273 26.7363 12.5481C26.9497 12.1274 27.0406 11.668 27.0832 11.1294C27.1248 10.6033 27.123 9.95134 27.1208 9.13146L27.1207 9.10524L27.1145 6.79567L27.1144 6.76943C27.1122 5.95363 27.1105 5.30478 27.0663 4.78131C27.0211 4.24522 26.9284 3.78819 26.7142 3.36983C26.3684 2.69428 25.8179 2.1453 25.1414 1.80131C24.7225 1.58828 24.2652 1.49674 23.729 1.45298C23.2054 1.41025 22.5565 1.41025 21.7407 1.41025L21.7145 1.41025L19.1792 1.41025L19.1529 1.41025C18.3331 1.41025 17.6811 1.41025 17.1552 1.45326C16.6166 1.49731 16.1575 1.58944 15.7374 1.80396C15.0591 2.15025 14.5081 2.70274 14.1636 3.38196C13.9502 3.8027 13.8593 4.26207 13.8168 4.8007C13.7752 5.32673 13.7769 5.97871 13.7791 6.79855L13.7792 6.82485L13.7984 13.9214Z" fill="#B85EF0"/>
<path d="M13.7984 13.9214L13.8 14.5198H14.3984H21.7208H21.747C22.5669 14.5198 23.2189 14.5198 23.7448 14.4768C24.2833 14.4328 24.7424 14.3406 25.1626 14.1261C25.8409 13.7798 26.3919 13.2273 26.7363 12.5481C26.9497 12.1274 27.0406 11.668 27.0832 11.1294C27.1248 10.6033 27.123 9.95134 27.1208 9.13146L27.1207 9.10524L27.1145 6.79567L27.1144 6.76943C27.1122 5.95363 27.1105 5.30478 27.0663 4.78131C27.0211 4.24522 26.9284 3.78819 26.7142 3.36983C26.3684 2.69428 25.8179 2.1453 25.1414 1.80131C24.7225 1.58828 24.2652 1.49674 23.729 1.45298C23.2054 1.41025 22.5565 1.41025 21.7407 1.41025L21.7145 1.41025L19.1792 1.41025L19.1529 1.41025C18.3331 1.41025 17.6811 1.41025 17.1552 1.45326C16.6166 1.49731 16.1575 1.58944 15.7374 1.80396C15.0591 2.15025 14.5081 2.70274 14.1636 3.38196C13.9502 3.8027 13.8593 4.26207 13.8168 4.8007C13.7752 5.32673 13.7769 5.97871 13.7791 6.79855L13.7792 6.82485L13.7984 13.9214Z" fill="#E5E5E5"/>
<path d="M13.7984 13.9214L13.8 14.5198H14.3984H21.7208H21.747C22.5669 14.5198 23.2189 14.5198 23.7448 14.4768C24.2833 14.4328 24.7424 14.3406 25.1626 14.1261C25.8409 13.7798 26.3919 13.2273 26.7363 12.5481C26.9497 12.1274 27.0406 11.668 27.0832 11.1294C27.1248 10.6033 27.123 9.95134 27.1208 9.13146L27.1207 9.10524L27.1145 6.79567L27.1144 6.76943C27.1122 5.95363 27.1105 5.30478 27.0663 4.78131C27.0211 4.24522 26.9284 3.78819 26.7142 3.36983C26.3684 2.69428 25.8179 2.1453 25.1414 1.80131C24.7225 1.58828 24.2652 1.49674 23.729 1.45298C23.2054 1.41025 22.5565 1.41025 21.7407 1.41025L21.7145 1.41025L19.1792 1.41025L19.1529 1.41025C18.3331 1.41025 17.6811 1.41025 17.1552 1.45326C16.6166 1.49731 16.1575 1.58944 15.7374 1.80396C15.0591 2.15025 14.5081 2.70274 14.1636 3.38196C13.9502 3.8027 13.8593 4.26207 13.8168 4.8007C13.7752 5.32673 13.7769 5.97871 13.7791 6.79855L13.7792 6.82485L13.7984 13.9214Z" stroke="black" stroke-width="1.2"/>
</g>
<g id="BG_6">
<rect x="15.5195" y="3.02612" width="9.85852" height="8.93428" rx="4.46714" fill="#EA3EA5"/>
<rect x="15.5195" y="3.02612" width="9.85852" height="8.93428" rx="4.46714" fill="#B85EF0"/>
<rect x="15.5195" y="3.02612" width="9.85852" height="8.93428" rx="4.46714" fill="black"/>
</g>
<g id="Subtract_6">
<path d="M14.3809 6.79414C14.3809 5.11398 14.3809 4.2739 14.7078 3.63217C14.9955 3.06768 15.4544 2.60874 16.0189 2.32112C16.6606 1.99414 17.5007 1.99414 19.1809 1.99414L21.7162 1.99414C23.3964 1.99414 24.2365 1.99414 24.8782 2.32112C25.4427 2.60874 25.9016 3.06768 26.1892 3.63217C26.5162 4.2739 26.5162 5.11398 26.5162 6.79414V8.19181C26.5162 9.87197 26.5162 10.712 26.1892 11.3538C25.9016 11.9183 25.4427 12.3772 24.8782 12.6648C24.2365 12.9918 23.3964 12.9918 21.7162 12.9918H14.3809V6.79414Z" fill="#F6E0FA"/>
<path d="M14.3809 6.79414C14.3809 5.11398 14.3809 4.2739 14.7078 3.63217C14.9955 3.06768 15.4544 2.60874 16.0189 2.32112C16.6606 1.99414 17.5007 1.99414 19.1809 1.99414L21.7162 1.99414C23.3964 1.99414 24.2365 1.99414 24.8782 2.32112C25.4427 2.60874 25.9016 3.06768 26.1892 3.63217C26.5162 4.2739 26.5162 5.11398 26.5162 6.79414V8.19181C26.5162 9.87197 26.5162 10.712 26.1892 11.3538C25.9016 11.9183 25.4427 12.3772 24.8782 12.6648C24.2365 12.9918 23.3964 12.9918 21.7162 12.9918H14.3809V6.79414Z" fill="white"/>
</g>
<path id="Vector_6" d="M19.7141 10.7C18.9991 10.7092 18.4613 10.15 18.1799 9.78726C17.9922 9.54545 17.8739 9.31386 17.7785 9.07087L19.0889 8.72104C19.2539 8.99644 19.4417 9.24934 19.6859 9.40162L21.4272 9.37927C21.4388 9.37913 21.5302 9.31135 21.6555 9.18764C21.7807 9.06392 21.8488 8.97424 21.8487 8.96315L21.8405 8.33052C21.8401 8.29722 21.8283 8.27517 21.8051 8.26437L18.8778 7.54709C18.2299 7.38889 17.9111 6.81575 17.9041 6.27191L17.8967 5.69478C17.8929 5.39511 17.9249 5.19489 18.1289 4.91476C18.2989 4.67947 18.652 4.33082 18.8806 4.17248C19.1664 3.969 19.3735 3.93304 19.6849 3.92905L21.2994 3.90833C22.0144 3.89916 22.5636 4.45824 22.8336 4.8211C23.0214 5.074 23.1395 5.2945 23.2349 5.53748L21.9245 5.88731C21.7595 5.61192 21.5717 5.35901 21.3276 5.20674L19.7246 5.2273C19.7131 5.22745 19.6217 5.29523 19.4964 5.41894C19.3711 5.54265 19.303 5.63233 19.3032 5.64343L19.3104 6.20947C19.311 6.25386 19.3459 6.27562 19.3459 6.27562L22.2849 7.00385C22.9213 7.16219 23.2516 7.73519 23.2586 8.27902L23.2667 8.91165C23.2705 9.21132 23.2385 9.41154 23.0345 9.69167C22.8645 9.92696 22.5114 10.2756 22.2828 10.434C21.997 10.6374 21.7899 10.6734 21.4785 10.6774L19.7141 10.7Z" fill="black"/>
</g>
</g>
</svg>
